<svg width="620" height="620" viewBox="0 0 620 620" fill="none" xmlns="http://www.w3.org/2000/svg">
<path d="M110.414 183.088L146.005 177.384L90.5799 155.114C85.2367 161.813 74.4416 183.522 74.0068 216.765C73.4635 258.318 105.314 296.228 155.508 285.476C193.545 277.329 214.653 261.305 218.004 253.157L201.968 237.949C163.659 262.935 131.056 264.564 117.471 245.553C104.746 227.745 106.7 199.021 110.414 183.088Z" fill="white" stroke="white"/>
<path d="M450.567 183.088L414.975 177.384L470.401 155.114C475.744 161.813 486.539 183.522 486.974 216.765C487.517 258.318 455.666 296.228 405.472 285.476C367.435 277.329 346.327 261.305 342.976 253.157L359.013 237.949C397.321 262.935 429.925 264.564 443.509 245.553C456.234 227.745 454.28 199.021 450.567 183.088Z" fill="white"/>
<path d="M282.622 505.944V348.485C306.832 375.504 360.839 429.73 383.187 430.475C318.378 464.017 289.14 564.331 282.622 610.295C281.07 566.815 259.343 472.961 184.851 445.382C212.788 450.041 271.455 468.675 282.622 505.944Z" fill="white"/>
<path fill-rule="evenodd" clip-rule="evenodd" d="M283.747 224.641V44.0348L417.149 9L545.659 131.214L479.638 124.968L539.411 159.731L479.638 335.177L507.079 344.411L407.368 412.579L283.747 295.797V224.641ZM442.144 124.968L327.49 240.936L338.357 269.453L462.25 335.177L511.969 163.533L442.144 124.968Z" fill="white"/>
</svg>
