<svg width="741" height="741" viewBox="0 0 741 741" fill="none" xmlns="http://www.w3.org/2000/svg">
<rect width="741" height="741" rx="308" fill="#00001C"/>
<path d="M170.414 244.088L206.005 238.384L150.58 216.114C145.237 222.813 134.442 244.522 134.007 277.765C133.463 319.318 165.314 357.228 215.508 346.476C253.545 338.329 274.653 322.305 278.004 314.157L261.968 298.949C223.659 323.935 191.056 325.564 177.471 306.553C164.746 288.745 166.7 260.021 170.414 244.088Z" fill="white" stroke="white"/>
<path d="M510.567 244.088L474.975 238.384L530.401 216.114C535.744 222.813 546.539 244.522 546.974 277.765C547.517 319.318 515.666 357.228 465.472 346.476C427.435 338.329 406.327 322.305 402.976 314.157L419.013 298.949C457.321 323.935 489.925 325.564 503.509 306.553C516.234 288.745 514.28 260.021 510.567 244.088Z" fill="white"/>
<path d="M342.622 566.944V409.485C366.832 436.504 420.839 490.73 443.187 491.475C378.378 525.017 349.14 625.331 342.622 671.295C341.07 627.815 319.343 533.961 244.851 506.382C272.788 511.041 331.455 529.675 342.622 566.944Z" fill="white"/>
<path fill-rule="evenodd" clip-rule="evenodd" d="M343.747 285.641V105.035L477.148 70L605.659 192.214L539.638 185.968L599.411 220.731L539.638 396.177L567.079 405.411L467.368 473.579L343.747 356.797V285.641ZM502.144 185.968L387.49 301.936L398.357 330.453L522.25 396.177L571.969 224.533L502.144 185.968Z" fill="white"/>
</svg>
