<svg width="2067" height="781" viewBox="0 0 2067 781" fill="none" xmlns="http://www.w3.org/2000/svg">
<rect width="2067" height="781" fill="white"/>
<path d="M668.505 104.596C684.319 406.58 573.616 620.381 387.169 746C108.614 529.092 106.668 300.562 105.005 105.194L105 104.596C208.85 75.571 272.74 66.8372 387.169 63C501.746 66.7075 563.157 76.3197 668.505 104.596Z" fill="#00001C"/>
<path d="M235.427 259.672L266.605 254.678L218.054 235.177C213.373 241.043 203.917 260.052 203.536 289.161C203.06 325.546 230.96 358.742 274.929 349.327C308.248 342.193 326.738 328.162 329.674 321.028L315.626 307.71C282.069 329.589 253.509 331.016 241.61 314.369C230.463 298.776 232.175 273.623 235.427 259.672Z" fill="white" stroke="white"/>
<path d="M533.391 259.672L502.214 254.678L550.765 235.177C555.445 241.043 564.901 260.052 565.282 289.161C565.758 325.546 537.858 358.742 493.889 349.327C460.57 342.193 442.08 328.162 439.145 321.028L453.192 307.71C486.75 329.589 515.309 331.016 527.209 314.369C538.355 298.776 536.643 273.623 533.391 259.672Z" fill="white"/>
<path d="M386.276 542.378V404.5C407.484 428.159 454.792 475.642 474.368 476.294C417.598 505.665 391.986 593.504 386.276 633.752C384.917 595.679 365.885 513.497 300.632 489.348C325.104 493.427 376.495 509.744 386.276 542.378Z" fill="#37373F"/>
<path fill-rule="evenodd" clip-rule="evenodd" d="M387.262 296.057V137.911L504.117 107.233L616.689 214.249L558.856 208.78L611.215 239.22L558.856 392.847L582.894 400.933L495.549 460.624L387.262 358.364V296.057ZM526.013 208.78L425.579 310.326L435.099 335.296L543.624 392.847L587.177 242.549L526.013 208.78Z" fill="#4E4E4E" fill-opacity="0.71"/>
<path d="M984.818 346.547C984.818 355.238 983.744 363.002 981.596 369.838C979.447 376.674 976.518 382.729 972.807 388.002C969.193 393.178 964.994 397.621 960.209 401.332C955.424 405.043 950.395 408.119 945.121 410.561C939.945 412.904 934.672 414.613 929.301 415.688C924.027 416.762 919.047 417.299 914.359 417.299L993.9 486H935.014L855.619 417.299H828.227V379.213H914.359C919.145 378.822 923.49 377.846 927.396 376.283C931.4 374.623 934.818 372.426 937.65 369.691C940.58 366.957 942.826 363.686 944.389 359.877C945.951 355.971 946.732 351.527 946.732 346.547V322.523C946.732 320.375 946.439 318.764 945.854 317.689C945.365 316.518 944.682 315.688 943.803 315.199C943.021 314.613 942.143 314.271 941.166 314.174C940.287 314.076 939.457 314.027 938.676 314.027H812.992V486H774.906V295.131C774.906 292.494 775.395 290.004 776.371 287.66C777.348 285.316 778.666 283.266 780.326 281.508C782.084 279.75 784.135 278.383 786.479 277.406C788.822 276.43 791.361 275.941 794.096 275.941H938.676C947.172 275.941 954.35 277.504 960.209 280.629C966.068 283.656 970.805 287.514 974.418 292.201C978.129 296.791 980.766 301.771 982.328 307.143C983.988 312.514 984.818 317.543 984.818 322.23V346.547ZM1229.15 486H1191.07V434.438H1057.18V486H1019.1V380.971C1019.1 365.639 1021.73 351.527 1027.01 338.637C1032.28 325.746 1039.6 314.662 1048.98 305.385C1058.35 296.107 1069.44 288.881 1082.23 283.705C1095.02 278.529 1108.99 275.941 1124.12 275.941H1209.96C1212.6 275.941 1215.09 276.43 1217.44 277.406C1219.78 278.383 1221.83 279.75 1223.59 281.508C1225.35 283.266 1226.71 285.316 1227.69 287.66C1228.67 290.004 1229.15 292.494 1229.15 295.131V486ZM1057.18 396.352H1191.07V314.027H1124.12C1122.95 314.027 1120.46 314.223 1116.65 314.613C1112.94 314.906 1108.6 315.736 1103.62 317.104C1098.73 318.471 1093.56 320.57 1088.09 323.402C1082.62 326.234 1077.59 330.141 1073 335.121C1068.41 340.102 1064.6 346.352 1061.58 353.871C1058.65 361.293 1057.18 370.326 1057.18 380.971V396.352ZM1483.74 275.941L1384.28 478.529C1382.72 481.654 1380.38 484.145 1377.25 486C1374.22 487.953 1370.85 488.93 1367.14 488.93C1363.53 488.93 1360.16 487.953 1357.04 486C1354.01 484.145 1351.66 481.654 1350 478.529L1250.69 275.941H1293.31L1367.14 427.26L1441.26 275.941H1483.74ZM1677.98 400.16H1557.72V361.781H1677.98V400.16ZM1695.12 486H1557.72C1552.45 486 1546.68 485.072 1540.43 483.217C1534.18 481.361 1528.37 478.334 1523 474.135C1517.73 469.838 1513.29 464.32 1509.67 457.582C1506.16 450.746 1504.4 442.396 1504.4 432.533V295.131C1504.4 292.494 1504.89 290.004 1505.86 287.66C1506.84 285.316 1508.16 283.266 1509.82 281.508C1511.58 279.75 1513.63 278.383 1515.97 277.406C1518.31 276.43 1520.85 275.941 1523.59 275.941H1695.12V314.027H1542.48V432.533C1542.48 437.514 1543.8 441.322 1546.44 443.959C1549.08 446.596 1552.93 447.914 1558.01 447.914H1695.12V486ZM1941.95 469.74C1941.95 472.475 1941.41 475.014 1940.34 477.357C1939.36 479.701 1937.99 481.752 1936.23 483.51C1934.57 485.17 1932.57 486.488 1930.23 487.465C1927.88 488.441 1925.39 488.93 1922.76 488.93C1920.41 488.93 1918.02 488.49 1915.58 487.611C1913.24 486.732 1911.14 485.316 1909.28 483.363L1770.12 338.051V486H1732.04V292.201C1732.04 288.295 1733.11 284.779 1735.26 281.654C1737.5 278.432 1740.34 276.039 1743.75 274.477C1747.37 273.012 1751.08 272.67 1754.89 273.451C1758.7 274.135 1761.97 275.893 1764.7 278.725L1903.86 423.891V275.941H1941.95V469.74Z" fill="#00001C"/>
</svg>

