<svg width="1000" height="1000" viewBox="0 0 1000 1000" fill="none" xmlns="http://www.w3.org/2000/svg">
<g clip-path="url(#clip0)">
<path d="M500 532C493.671 532 487.484 530.123 482.222 526.607C476.959 523.091 472.858 518.093 470.436 512.246C468.014 506.399 467.38 499.965 468.615 493.757C469.85 487.55 472.897 481.848 477.373 477.373C481.848 472.897 487.55 469.85 493.757 468.615C499.965 467.38 506.399 468.014 512.246 470.436C518.093 472.858 523.091 476.959 526.607 482.222C530.123 487.484 532 493.671 532 500C532 508.487 528.629 516.626 522.627 522.627C516.626 528.629 508.487 532 500 532V532ZM500 484C496.836 484 493.742 484.938 491.111 486.697C488.48 488.455 486.429 490.953 485.218 493.877C484.007 496.801 483.69 500.018 484.307 503.121C484.925 506.225 486.449 509.076 488.686 511.314C490.924 513.551 493.775 515.075 496.879 515.693C499.982 516.31 503.199 515.993 506.123 514.782C509.047 513.571 511.545 511.52 513.304 508.889C515.062 506.258 516 503.165 516 500C516 495.757 514.314 491.687 511.314 488.686C508.313 485.686 504.243 484 500 484Z" fill="#BFBEC2"/>
<path d="M612 532C605.671 532 599.484 530.123 594.222 526.607C588.959 523.091 584.858 518.093 582.436 512.246C580.014 506.399 579.38 499.965 580.615 493.757C581.85 487.55 584.897 481.848 589.373 477.373C593.848 472.897 599.55 469.85 605.757 468.615C611.965 467.38 618.399 468.014 624.246 470.436C630.093 472.858 635.091 476.959 638.607 482.222C642.123 487.484 644 493.671 644 500C644 508.487 640.629 516.626 634.627 522.627C628.626 528.629 620.487 532 612 532ZM612 484C608.836 484 605.742 484.938 603.111 486.697C600.48 488.455 598.429 490.953 597.218 493.877C596.007 496.801 595.69 500.018 596.307 503.121C596.925 506.225 598.449 509.076 600.686 511.314C602.924 513.551 605.775 515.075 608.879 515.693C611.982 516.31 615.199 515.993 618.123 514.782C621.047 513.571 623.545 511.52 625.304 508.889C627.062 506.258 628 503.165 628 500C628 495.757 626.314 491.687 623.314 488.686C620.313 485.686 616.243 484 612 484Z" fill="#BFBEC2"/>
<path d="M724 532C717.671 532 711.484 530.123 706.222 526.607C700.959 523.091 696.858 518.093 694.436 512.246C692.014 506.399 691.38 499.965 692.615 493.757C693.85 487.55 696.897 481.848 701.373 477.373C705.848 472.897 711.55 469.85 717.757 468.615C723.965 467.38 730.399 468.014 736.246 470.436C742.093 472.858 747.091 476.959 750.607 482.222C754.123 487.484 756 493.671 756 500C756 508.487 752.629 516.626 746.627 522.627C740.626 528.629 732.487 532 724 532ZM724 484C720.836 484 717.742 484.938 715.111 486.697C712.48 488.455 710.429 490.953 709.218 493.877C708.007 496.801 707.69 500.018 708.307 503.121C708.925 506.225 710.449 509.076 712.686 511.314C714.924 513.551 717.775 515.075 720.879 515.693C723.982 516.31 727.199 515.993 730.123 514.782C733.047 513.571 735.545 511.52 737.304 508.889C739.062 506.258 740 503.165 740 500C740 495.757 738.314 491.687 735.314 488.686C732.313 485.686 728.243 484 724 484Z" fill="#BFBEC2"/>
<path d="M548 476H564V524H548V476Z" fill="#BFBEC2"/>
<path d="M660 476H676V524H660V476Z" fill="#BFBEC2"/>
<path d="M388 532C381.671 532 375.484 530.123 370.222 526.607C364.959 523.091 360.858 518.093 358.436 512.246C356.014 506.399 355.38 499.965 356.615 493.757C357.85 487.55 360.897 481.848 365.373 477.373C369.848 472.897 375.55 469.85 381.757 468.615C387.965 467.38 394.399 468.014 400.246 470.436C406.093 472.858 411.091 476.959 414.607 482.222C418.123 487.484 420 493.671 420 500C420 508.487 416.629 516.626 410.627 522.627C404.626 528.629 396.487 532 388 532ZM388 484C384.836 484 381.742 484.938 379.111 486.697C376.48 488.455 374.429 490.953 373.218 493.877C372.007 496.801 371.69 500.018 372.307 503.121C372.925 506.225 374.449 509.076 376.686 511.314C378.924 513.551 381.775 515.075 384.879 515.693C387.982 516.31 391.199 515.993 394.123 514.782C397.047 513.571 399.545 511.52 401.304 508.889C403.062 506.258 404 503.165 404 500C404 495.757 402.314 491.687 399.314 488.686C396.313 485.686 392.243 484 388 484Z" fill="#BFBEC2"/>
<path d="M276 532C269.671 532 263.484 530.123 258.222 526.607C252.959 523.091 248.858 518.093 246.436 512.246C244.014 506.399 243.38 499.965 244.615 493.757C245.85 487.55 248.897 481.848 253.373 477.373C257.848 472.897 263.55 469.85 269.757 468.615C275.965 467.38 282.399 468.014 288.246 470.436C294.093 472.858 299.091 476.959 302.607 482.222C306.123 487.484 308 493.671 308 500C308 508.487 304.629 516.626 298.627 522.627C292.626 528.629 284.487 532 276 532V532ZM276 484C272.836 484 269.742 484.938 267.111 486.697C264.48 488.455 262.429 490.953 261.218 493.877C260.007 496.801 259.69 500.018 260.307 503.121C260.925 506.225 262.449 509.076 264.686 511.314C266.924 513.551 269.775 515.075 272.879 515.693C275.982 516.31 279.199 515.993 282.123 514.782C285.047 513.571 287.545 511.52 289.304 508.889C291.062 506.258 292 503.165 292 500C292 495.757 290.314 491.687 287.314 488.686C284.313 485.686 280.243 484 276 484Z" fill="#BFBEC2"/>
<path d="M436 476H452V524H436V476Z" fill="#BFBEC2"/>
<path d="M444 436C437.671 436 431.484 434.123 426.222 430.607C420.959 427.091 416.858 422.093 414.436 416.246C412.014 410.399 411.38 403.965 412.615 397.757C413.85 391.55 416.897 385.848 421.373 381.373C425.848 376.897 431.55 373.85 437.757 372.615C443.965 371.38 450.399 372.014 456.246 374.436C462.093 376.858 467.091 380.959 470.607 386.222C474.123 391.484 476 397.671 476 404C476 412.487 472.629 420.626 466.627 426.627C460.626 432.629 452.487 436 444 436ZM444 388C440.836 388 437.742 388.938 435.111 390.697C432.48 392.455 430.429 394.953 429.218 397.877C428.007 400.801 427.69 404.018 428.307 407.121C428.925 410.225 430.449 413.076 432.686 415.314C434.924 417.551 437.775 419.075 440.879 419.693C443.982 420.31 447.199 419.993 450.123 418.782C453.047 417.571 455.545 415.52 457.304 412.889C459.062 410.258 460 407.165 460 404C460 399.757 458.314 395.687 455.314 392.686C452.313 389.686 448.243 388 444 388Z" fill="#BFBEC2"/>
<path d="M556 436C549.671 436 543.484 434.123 538.222 430.607C532.959 427.091 528.858 422.093 526.436 416.246C524.014 410.399 523.38 403.965 524.615 397.757C525.85 391.55 528.897 385.848 533.373 381.373C537.848 376.897 543.55 373.85 549.757 372.615C555.965 371.38 562.399 372.014 568.246 374.436C574.093 376.858 579.091 380.959 582.607 386.222C586.123 391.484 588 397.671 588 404C588 412.487 584.629 420.626 578.627 426.627C572.626 432.629 564.487 436 556 436ZM556 388C552.836 388 549.742 388.938 547.111 390.697C544.48 392.455 542.429 394.953 541.218 397.877C540.007 400.801 539.69 404.018 540.307 407.121C540.925 410.225 542.449 413.076 544.686 415.314C546.924 417.551 549.775 419.075 552.879 419.693C555.982 420.31 559.199 419.993 562.123 418.782C565.047 417.571 567.545 415.52 569.304 412.889C571.062 410.258 572 407.165 572 404C572 399.757 570.314 395.687 567.314 392.686C564.313 389.686 560.243 388 556 388Z" fill="#BFBEC2"/>
<path d="M668 436C661.671 436 655.484 434.123 650.222 430.607C644.959 427.091 640.858 422.093 638.436 416.246C636.014 410.399 635.38 403.965 636.615 397.757C637.85 391.55 640.897 385.848 645.373 381.373C649.848 376.897 655.55 373.85 661.757 372.615C667.965 371.38 674.399 372.014 680.246 374.436C686.093 376.858 691.091 380.959 694.607 386.222C698.123 391.484 700 397.671 700 404C700 412.487 696.629 420.626 690.627 426.627C684.626 432.629 676.487 436 668 436ZM668 388C664.836 388 661.742 388.938 659.111 390.697C656.48 392.455 654.429 394.953 653.218 397.877C652.007 400.801 651.69 404.018 652.307 407.121C652.925 410.225 654.449 413.076 656.686 415.314C658.924 417.551 661.775 419.075 664.879 419.693C667.982 420.31 671.199 419.993 674.123 418.782C677.047 417.571 679.545 415.52 681.304 412.889C683.062 410.258 684 407.165 684 404C684 399.757 682.314 395.687 679.314 392.686C676.313 389.686 672.243 388 668 388Z" fill="#BFBEC2"/>
<path d="M492 380H508V428H492V380Z" fill="#BFBEC2"/>
<path d="M604 380H620V428H604V380Z" fill="#BFBEC2"/>
<path d="M388 340C381.671 340 375.484 338.123 370.222 334.607C364.959 331.091 360.858 326.093 358.436 320.246C356.014 314.399 355.38 307.965 356.615 301.757C357.85 295.55 360.897 289.848 365.373 285.373C369.848 280.897 375.55 277.85 381.757 276.615C387.965 275.38 394.399 276.014 400.246 278.436C406.093 280.858 411.091 284.959 414.607 290.222C418.123 295.484 420 301.671 420 308C420 316.487 416.629 324.626 410.627 330.627C404.626 336.629 396.487 340 388 340ZM388 292C384.836 292 381.742 292.938 379.111 294.697C376.48 296.455 374.429 298.953 373.218 301.877C372.007 304.801 371.69 308.018 372.307 311.121C372.925 314.225 374.449 317.076 376.686 319.314C378.924 321.551 381.775 323.075 384.879 323.693C387.982 324.31 391.199 323.993 394.123 322.782C397.047 321.571 399.545 319.52 401.304 316.889C403.062 314.258 404 311.165 404 308C404 303.757 402.314 299.687 399.314 296.686C396.313 293.686 392.243 292 388 292V292Z" fill="#BFBEC2"/>
<path d="M500 340C493.671 340 487.484 338.123 482.222 334.607C476.959 331.091 472.858 326.093 470.436 320.246C468.014 314.399 467.38 307.965 468.615 301.757C469.85 295.55 472.897 289.848 477.373 285.373C481.848 280.897 487.55 277.85 493.757 276.615C499.965 275.38 506.399 276.014 512.246 278.436C518.093 280.858 523.091 284.959 526.607 290.222C530.123 295.484 532 301.671 532 308C532 316.487 528.629 324.626 522.627 330.627C516.626 336.629 508.487 340 500 340V340ZM500 292C496.836 292 493.742 292.938 491.111 294.697C488.48 296.455 486.429 298.953 485.218 301.877C484.007 304.801 483.69 308.018 484.307 311.121C484.925 314.225 486.449 317.076 488.686 319.314C490.924 321.551 493.775 323.075 496.879 323.693C499.982 324.31 503.199 323.993 506.123 322.782C509.047 321.571 511.545 319.52 513.304 316.889C515.062 314.258 516 311.165 516 308C516 303.757 514.314 299.687 511.314 296.686C508.313 293.686 504.243 292 500 292V292Z" fill="#BFBEC2"/>
<path d="M612 340C605.671 340 599.484 338.123 594.222 334.607C588.959 331.091 584.858 326.093 582.436 320.246C580.014 314.399 579.38 307.965 580.615 301.757C581.85 295.55 584.897 289.848 589.373 285.373C593.848 280.897 599.55 277.85 605.757 276.615C611.965 275.38 618.399 276.014 624.246 278.436C630.093 280.858 635.091 284.959 638.607 290.222C642.123 295.484 644 301.671 644 308C644 316.487 640.629 324.626 634.627 330.627C628.626 336.629 620.487 340 612 340ZM612 292C608.836 292 605.742 292.938 603.111 294.697C600.48 296.455 598.429 298.953 597.218 301.877C596.007 304.801 595.69 308.018 596.307 311.121C596.925 314.225 598.449 317.076 600.686 319.314C602.924 321.551 605.775 323.075 608.879 323.693C611.982 324.31 615.199 323.993 618.123 322.782C621.047 321.571 623.545 319.52 625.304 316.889C627.062 314.258 628 311.165 628 308C628 303.757 626.314 299.687 623.314 296.686C620.313 293.686 616.243 292 612 292V292Z" fill="#BFBEC2"/>
<path d="M436 284H452V332H436V284Z" fill="#BFBEC2"/>
<path d="M548 284H564V332H548V284Z" fill="#BFBEC2"/>
<path d="M332 436C325.671 436 319.484 434.123 314.222 430.607C308.959 427.091 304.858 422.093 302.436 416.246C300.014 410.399 299.38 403.965 300.615 397.757C301.85 391.55 304.897 385.848 309.373 381.373C313.848 376.897 319.55 373.85 325.757 372.615C331.965 371.38 338.399 372.014 344.246 374.436C350.093 376.858 355.091 380.959 358.607 386.222C362.123 391.484 364 397.671 364 404C364 412.487 360.629 420.626 354.627 426.627C348.626 432.629 340.487 436 332 436ZM332 388C328.836 388 325.742 388.938 323.111 390.697C320.48 392.455 318.429 394.953 317.218 397.877C316.007 400.801 315.69 404.018 316.307 407.121C316.925 410.225 318.449 413.076 320.686 415.314C322.924 417.551 325.775 419.075 328.879 419.693C331.982 420.31 335.199 419.993 338.123 418.782C341.047 417.571 343.545 415.52 345.304 412.889C347.062 410.258 348 407.165 348 404C348 399.757 346.314 395.687 343.314 392.686C340.313 389.686 336.243 388 332 388Z" fill="#BFBEC2"/>
<path d="M380 380H396V428H380V380Z" fill="#BFBEC2"/>
<path d="M444 628C437.671 628 431.484 626.123 426.222 622.607C420.959 619.091 416.858 614.093 414.436 608.246C412.014 602.399 411.38 595.965 412.615 589.757C413.85 583.55 416.897 577.848 421.373 573.373C425.848 568.897 431.55 565.85 437.757 564.615C443.965 563.38 450.399 564.014 456.246 566.436C462.093 568.858 467.091 572.959 470.607 578.222C474.123 583.484 476 589.671 476 596C476 604.487 472.629 612.626 466.627 618.627C460.626 624.629 452.487 628 444 628ZM444 580C440.836 580 437.742 580.938 435.111 582.696C432.48 584.455 430.429 586.953 429.218 589.877C428.007 592.801 427.69 596.018 428.307 599.121C428.925 602.225 430.449 605.076 432.686 607.314C434.924 609.551 437.775 611.075 440.879 611.693C443.982 612.31 447.199 611.993 450.123 610.782C453.047 609.571 455.545 607.52 457.304 604.889C459.062 602.258 460 599.165 460 596C460 591.757 458.314 587.687 455.314 584.686C452.313 581.686 448.243 580 444 580Z" fill="#BFBEC2"/>
<path d="M556 628C549.671 628 543.484 626.123 538.222 622.607C532.959 619.091 528.858 614.093 526.436 608.246C524.014 602.399 523.38 595.965 524.615 589.757C525.85 583.55 528.897 577.848 533.373 573.373C537.848 568.897 543.55 565.85 549.757 564.615C555.965 563.38 562.399 564.014 568.246 566.436C574.093 568.858 579.091 572.959 582.607 578.222C586.123 583.484 588 589.671 588 596C588 604.487 584.629 612.626 578.627 618.627C572.626 624.629 564.487 628 556 628ZM556 580C552.836 580 549.742 580.938 547.111 582.696C544.48 584.455 542.429 586.953 541.218 589.877C540.007 592.801 539.69 596.018 540.307 599.121C540.925 602.225 542.449 605.076 544.686 607.314C546.924 609.551 549.775 611.075 552.879 611.693C555.982 612.31 559.199 611.993 562.123 610.782C565.047 609.571 567.545 607.52 569.304 604.889C571.062 602.258 572 599.165 572 596C572 591.757 570.314 587.687 567.314 584.686C564.313 581.686 560.243 580 556 580Z" fill="#BFBEC2"/>
<path d="M668 628C661.671 628 655.484 626.123 650.222 622.607C644.959 619.091 640.858 614.093 638.436 608.246C636.014 602.399 635.38 595.965 636.615 589.757C637.85 583.55 640.897 577.848 645.373 573.373C649.848 568.897 655.55 565.85 661.757 564.615C667.965 563.38 674.399 564.014 680.246 566.436C686.093 568.858 691.091 572.959 694.607 578.222C698.123 583.484 700 589.671 700 596C700 604.487 696.629 612.626 690.627 618.627C684.626 624.629 676.487 628 668 628ZM668 580C664.836 580 661.742 580.938 659.111 582.696C656.48 584.455 654.429 586.953 653.218 589.877C652.007 592.801 651.69 596.018 652.307 599.121C652.925 602.225 654.449 605.076 656.686 607.314C658.924 609.551 661.775 611.075 664.879 611.693C667.982 612.31 671.199 611.993 674.123 610.782C677.047 609.571 679.545 607.52 681.304 604.889C683.062 602.258 684 599.165 684 596C684 591.757 682.314 587.687 679.314 584.686C676.313 581.686 672.243 580 668 580Z" fill="#BFBEC2"/>
<path d="M492 572H508V620H492V572Z" fill="#BFBEC2"/>
<path d="M604 572H620V620H604V572Z" fill="#BFBEC2"/>
<path d="M388 724C381.671 724 375.484 722.123 370.222 718.607C364.959 715.091 360.858 710.093 358.436 704.246C356.014 698.399 355.38 691.965 356.615 685.757C357.85 679.55 360.897 673.848 365.373 669.373C369.848 664.897 375.55 661.85 381.757 660.615C387.965 659.38 394.399 660.014 400.246 662.436C406.093 664.858 411.091 668.959 414.607 674.222C418.123 679.484 420 685.671 420 692C420 700.487 416.629 708.626 410.627 714.627C404.626 720.629 396.487 724 388 724ZM388 676C384.836 676 381.742 676.938 379.111 678.696C376.48 680.455 374.429 682.953 373.218 685.877C372.007 688.801 371.69 692.018 372.307 695.121C372.925 698.225 374.449 701.076 376.686 703.314C378.924 705.551 381.775 707.075 384.879 707.693C387.982 708.31 391.199 707.993 394.123 706.782C397.047 705.571 399.545 703.52 401.304 700.889C403.062 698.258 404 695.165 404 692C404 687.757 402.314 683.687 399.314 680.686C396.313 677.686 392.243 676 388 676Z" fill="#BFBEC2"/>
<path d="M500 724C493.671 724 487.484 722.123 482.222 718.607C476.959 715.091 472.858 710.093 470.436 704.246C468.014 698.399 467.38 691.965 468.615 685.757C469.85 679.55 472.897 673.848 477.373 669.373C481.848 664.897 487.55 661.85 493.757 660.615C499.965 659.38 506.399 660.014 512.246 662.436C518.093 664.858 523.091 668.959 526.607 674.222C530.123 679.484 532 685.671 532 692C532 700.487 528.629 708.626 522.627 714.627C516.626 720.629 508.487 724 500 724V724ZM500 676C496.836 676 493.742 676.938 491.111 678.696C488.48 680.455 486.429 682.953 485.218 685.877C484.007 688.801 483.69 692.018 484.307 695.121C484.925 698.225 486.449 701.076 488.686 703.314C490.924 705.551 493.775 707.075 496.879 707.693C499.982 708.31 503.199 707.993 506.123 706.782C509.047 705.571 511.545 703.52 513.304 700.889C515.062 698.258 516 695.165 516 692C516 687.757 514.314 683.687 511.314 680.686C508.313 677.686 504.243 676 500 676Z" fill="#BFBEC2"/>
<path d="M612 724C605.671 724 599.484 722.123 594.222 718.607C588.959 715.091 584.858 710.093 582.436 704.246C580.014 698.399 579.38 691.965 580.615 685.757C581.85 679.55 584.897 673.848 589.373 669.373C593.848 664.897 599.55 661.85 605.757 660.615C611.965 659.38 618.399 660.014 624.246 662.436C630.093 664.858 635.091 668.959 638.607 674.222C642.123 679.484 644 685.671 644 692C644 700.487 640.629 708.626 634.627 714.627C628.626 720.629 620.487 724 612 724ZM612 676C608.836 676 605.742 676.938 603.111 678.696C600.48 680.455 598.429 682.953 597.218 685.877C596.007 688.801 595.69 692.018 596.307 695.121C596.925 698.225 598.449 701.076 600.686 703.314C602.924 705.551 605.775 707.075 608.879 707.693C611.982 708.31 615.199 707.993 618.123 706.782C621.047 705.571 623.545 703.52 625.304 700.889C627.062 698.258 628 695.165 628 692C628 687.757 626.314 683.687 623.314 680.686C620.313 677.686 616.243 676 612 676Z" fill="#BFBEC2"/>
<path d="M436 668H452V716H436V668Z" fill="#BFBEC2"/>
<path d="M548 668H564V716H548V668Z" fill="#BFBEC2"/>
<path d="M332 628C325.671 628 319.484 626.123 314.222 622.607C308.959 619.091 304.858 614.093 302.436 608.246C300.014 602.399 299.38 595.965 300.615 589.757C301.85 583.55 304.897 577.848 309.373 573.373C313.848 568.897 319.55 565.85 325.757 564.615C331.965 563.38 338.399 564.014 344.246 566.436C350.093 568.858 355.091 572.959 358.607 578.222C362.123 583.484 364 589.671 364 596C364 604.487 360.629 612.626 354.627 618.627C348.626 624.629 340.487 628 332 628ZM332 580C328.836 580 325.742 580.938 323.111 582.696C320.48 584.455 318.429 586.953 317.218 589.877C316.007 592.801 315.69 596.018 316.307 599.121C316.925 602.225 318.449 605.076 320.686 607.314C322.924 609.551 325.775 611.075 328.879 611.693C331.982 612.31 335.199 611.993 338.123 610.782C341.047 609.571 343.545 607.52 345.304 604.889C347.062 602.258 348 599.165 348 596C348 591.757 346.314 587.687 343.314 584.686C340.313 581.686 336.243 580 332 580Z" fill="#BFBEC2"/>
<path d="M380 572H396V620H380V572Z" fill="#BFBEC2"/>
<path d="M324 476H340V524H324V476Z" fill="#BFBEC2"/>
</g>
<defs>
<clipPath id="clip0">
<rect width="512" height="512" fill="white" transform="translate(244 244)"/>
</clipPath>
</defs>
</svg>
