<svg width="1000" height="1000" viewBox="0 0 1000 1000" fill="none" xmlns="http://www.w3.org/2000/svg">
<path d="M803 499.5C803 332.702 667.298 197 500.5 197C416.456 197 346.598 226.111 286.966 285.995C283.044 289.928 283.044 296.311 286.976 300.233L343.644 356.901C343.644 356.901 343.654 356.911 343.654 356.921H343.664L493.371 506.628C497.314 510.571 503.687 510.571 507.629 506.628C511.571 502.685 511.572 496.312 507.629 492.37L479.728 464.469C485.596 461.051 492.484 459.165 500.5 459.165C522.744 459.165 540.833 477.254 540.833 499.498C540.833 521.742 522.743 539.831 500.5 539.831C478.256 539.831 460.167 521.741 460.167 499.498C460.167 493.932 455.65 489.415 450.084 489.415C444.519 489.415 440.001 493.932 440.001 499.498C440.001 532.864 467.135 559.998 500.501 559.998C533.867 559.998 561.001 532.864 561.001 499.498C561.001 466.132 533.867 438.998 500.501 438.998C486.94 438.998 474.9 442.748 465.089 449.827L422.416 407.155C444.236 388.651 471.572 378.498 500.501 378.498C567.223 378.498 621.501 432.776 621.501 499.498C621.501 552.617 587.379 598.748 537.537 614.67C531.355 600.333 517.087 590.25 500.5 590.25C483.903 590.25 469.645 600.333 463.464 614.682C413.622 598.76 379.5 552.619 379.5 499.5C379.5 481.159 383.635 463.371 391.791 446.653C394.232 441.642 392.154 435.612 387.153 433.162C382.132 430.711 376.102 432.808 373.662 437.81C364.153 457.311 359.333 478.063 359.333 499.5C359.333 562.622 400.664 617.243 460.59 634.818C462.748 655.045 479.708 670.916 500.5 670.916C521.292 670.916 538.252 655.044 540.399 634.818C600.325 617.242 641.666 562.611 641.666 499.5C641.666 421.657 578.343 358.333 500.499 358.333C466.185 358.333 433.808 370.604 408.156 392.898L365.403 350.135C402.55 316.466 450.052 297.833 500.5 297.833C541.64 297.833 580.774 310.144 614.381 333.236C612.505 337.885 611.416 342.936 611.416 348.25C611.416 370.494 629.506 388.583 651.749 388.583C657.063 388.583 662.125 387.493 666.773 385.618C689.864 419.226 702.166 458.349 702.166 499.499C702.166 610.698 611.698 701.166 500.499 701.166C389.299 701.166 298.833 610.699 298.833 499.5C298.833 460.024 310.328 421.717 332.088 388.714C335.153 384.066 333.872 377.813 329.214 374.739C324.566 371.663 318.315 372.964 315.248 377.613C291.311 413.923 278.667 456.061 278.667 499.5C278.667 621.821 378.179 721.333 500.5 721.333C622.821 721.333 722.333 621.821 722.333 499.5C722.333 453.954 708.629 410.665 682.917 373.539C688.553 366.593 692.083 357.87 692.083 348.25C692.083 326.006 673.993 307.917 651.75 307.917C642.13 307.917 633.398 311.447 626.461 317.093C589.335 291.369 546.026 277.667 500.5 277.667C444.658 277.667 392.114 298.408 351.145 335.878L308.463 293.195C362.52 242.052 425.449 217.167 500.5 217.167C656.187 217.167 782.833 343.824 782.833 499.5C782.833 560.594 762.606 620.208 726.083 668.869C719.368 663.889 711.15 660.833 702.166 660.833C679.921 660.833 661.833 678.923 661.833 701.166C661.833 710.15 664.889 718.368 669.869 725.083C621.207 761.615 561.625 781.833 500.5 781.833C344.813 781.833 218.167 655.176 218.167 499.5C218.167 446.119 233.172 394.139 261.576 349.168C264.55 344.459 263.139 338.227 258.43 335.253C253.731 332.288 247.489 333.69 244.515 338.399C214.083 386.597 198 442.307 198 499.5C198 666.298 333.702 802 500.5 802C567.715 802 633.207 779.242 686.073 738.112C691.014 740.27 696.449 741.5 702.166 741.5C724.41 741.5 742.499 723.41 742.499 701.167C742.499 695.45 741.269 690.035 739.111 685.094C780.242 632.237 803 566.675 803 499.5ZM500.5 650.75C489.378 650.75 480.333 641.706 480.333 630.583C480.333 619.46 489.377 610.416 500.5 610.416C511.622 610.416 520.667 619.46 520.667 630.583C520.667 641.706 511.622 650.75 500.5 650.75ZM651.75 328.083C662.872 328.083 671.917 337.127 671.917 348.25C671.917 353.775 669.668 358.777 666.069 362.427C665.121 362.77 664.174 363.113 663.336 363.748C662.59 364.313 662.095 365.049 661.561 365.755C658.647 367.398 655.32 368.417 651.75 368.417C640.628 368.417 631.583 359.373 631.583 348.25C631.583 337.128 640.628 328.083 651.75 328.083ZM702.167 721.333C699.202 721.333 696.42 720.657 693.888 719.508C693.818 719.417 693.797 719.306 693.727 719.217C692.396 717.604 690.631 716.686 688.776 716.121C684.652 712.43 682 707.126 682 701.167C682 690.045 691.044 681 702.167 681C713.29 681 722.334 690.044 722.334 701.167C722.334 712.29 713.289 721.333 702.167 721.333Z" fill="#BFBEC2"/>
</svg>
