<svg width="1000" height="1000" viewBox="0 0 1000 1000" fill="none" xmlns="http://www.w3.org/2000/svg">
<path d="M617.109 568.125V555.455L605.349 560.156C604.903 560.336 602.132 561.52 598.203 563.896C594.866 544.278 587.129 533.478 580.078 523.87C572.332 513.328 565.641 504.218 565.641 482.344V471.878L555.381 473.929C554.944 474.014 552.276 474.641 548.484 476.228V456.172C605.966 451.763 651.422 403.691 651.422 345.094C651.422 283.606 601.394 233.578 539.906 233.578C493.61 233.578 453.833 261.946 436.994 302.203H145.312C131.124 302.203 119.578 313.749 119.578 327.938V653.906C119.578 668.094 131.124 679.641 145.312 679.641H222.516V765.422H445.547H471.281H497.728H513.46H565.641C617.753 765.422 651.422 731.753 651.422 679.641C651.422 646.023 641.102 629.304 631.992 614.55C624.015 601.605 617.109 590.437 617.109 568.125V568.125ZM539.906 250.734C549.128 250.734 558.95 263.833 565.718 285.047H514.086C520.863 263.833 530.685 250.734 539.906 250.734ZM570.093 302.203C572.186 312.574 573.593 324.103 574.039 336.516H505.774C506.22 324.103 507.635 312.574 509.72 302.203H570.093ZM633.828 336.516H591.186C590.792 324.343 589.608 312.814 587.678 302.203H623.843C629.222 312.677 632.722 324.249 633.828 336.516ZM539.906 439.453C530.685 439.453 520.863 426.354 514.095 405.141H565.726C558.95 426.354 549.128 439.453 539.906 439.453ZM509.72 387.984C507.627 377.613 506.22 366.084 505.774 353.672H574.039C573.593 366.084 572.177 377.613 570.093 387.984H509.72ZM591.186 353.672H633.828C632.713 365.939 629.222 377.51 623.843 387.984H587.678C589.608 377.373 590.8 365.844 591.186 353.672V353.672ZM488.626 336.516H445.984C447.1 324.249 450.591 312.677 455.969 302.203H492.135C490.205 312.814 489.012 324.343 488.626 336.516ZM488.626 353.672C489.021 365.844 490.205 377.373 492.135 387.984H455.969C450.599 377.51 447.1 365.939 445.984 353.672H488.626ZM496.115 405.141C499.272 416.249 503.295 425.917 508.047 433.8C491.972 428.01 477.869 418.068 467.181 405.141H496.115ZM571.765 433.8C576.509 425.917 580.541 416.249 583.698 405.141H612.632C601.943 418.068 587.841 428.001 571.765 433.8V433.8ZM612.64 285.047H583.706C580.549 273.938 576.526 264.271 571.774 256.387C587.841 262.186 601.943 272.12 612.64 285.047V285.047ZM508.047 256.387C503.295 264.271 499.272 273.938 496.115 285.047H467.181C477.869 272.12 491.972 262.186 508.047 256.387V256.387ZM145.312 319.359H431.504C429.54 327.637 428.391 336.224 428.391 345.094C428.391 367.208 434.944 387.787 446.087 405.141H136.734V327.938C136.734 323.211 140.577 319.359 145.312 319.359ZM145.312 662.484C140.577 662.484 136.734 658.641 136.734 653.906V422.297H459.624C478.058 441.46 503.243 454.019 531.328 456.172V487.405C524.826 493.384 518.264 501.868 513.391 514.006C496.947 479.873 464.547 473.954 464.11 473.886L454.125 472.213V482.344C454.125 504.287 447.4 513.508 439.611 524.179C431.951 534.679 423.544 546.508 420.808 569.377C412.933 563.141 406.551 560.439 405.847 560.164L394.078 555.455V568.125C394.078 578.788 392.474 586.877 389.952 593.859H222.516V662.484H145.312ZM325.453 662.484V696.797H291.141V662.484H325.453ZM273.984 645.328V611.016H308.297V645.328H273.984ZM256.828 645.328H239.672V611.016H256.828V645.328ZM239.672 662.484H273.984V696.797H239.672V662.484ZM308.297 713.953V748.266H273.984V713.953H308.297ZM342.609 662.484H360.889C360.229 667.726 359.766 673.301 359.766 679.641C359.766 685.62 360.263 691.324 361.121 696.797H342.609V662.484ZM364.398 645.328H325.453V611.016H381.357C380.645 612.191 379.933 613.357 379.195 614.55C373.894 623.128 368.249 632.487 364.398 645.328ZM239.672 713.953H256.828V748.266H239.672V713.953ZM325.453 748.266V713.953H365.496C370.617 728.038 379.066 739.645 390.269 748.266H325.453ZM548.484 730.38C548.484 723.157 546.288 716.218 542.154 710.325L505.594 658.084L469.034 710.325C464.891 716.226 462.703 723.166 462.703 730.38C457.376 723.149 454.125 714.305 454.125 704.663C454.125 695.665 456.844 687.026 462.008 679.666L505.594 617.398L549.179 679.675C554.343 687.026 557.062 695.665 557.062 704.663C557.062 714.313 553.811 723.157 548.484 730.38V730.38ZM497.728 748.266C487.88 748.266 479.859 740.245 479.859 730.397C479.859 726.717 480.975 723.183 483.085 720.172L505.594 688.013L528.103 720.172C530.213 723.175 531.328 726.709 531.328 730.397C531.328 740.245 523.308 748.266 513.46 748.266H497.728ZM565.641 748.266H555.673C567.09 737.217 574.219 721.768 574.219 704.663C574.219 692.13 570.427 680.087 563.239 669.827L505.594 587.477L447.949 669.827C440.76 680.087 436.969 692.13 436.969 704.663C436.969 721.768 444.097 737.217 455.515 748.266H445.547C412.375 748.266 376.922 730.234 376.922 679.641C376.922 650.895 385.114 637.625 393.795 623.565C400.675 612.414 407.743 600.962 410.265 582.845C421.374 591.706 436.969 610.372 436.969 645.328H454.125C454.125 618.642 446.319 599.761 437.003 586.594C436.994 586.156 436.969 585.719 436.969 585.281C436.969 556.896 444.989 545.916 453.464 534.293C460.541 524.6 468.416 513.808 470.664 493.976C483.702 499.963 505.594 516.433 505.594 559.547H522.75C522.75 518.947 538.542 501.945 549.222 495.099C551.547 514.006 559.001 524.154 566.25 534.036C573.833 544.355 580.944 554.306 582.437 576.609C569.964 589.45 557.062 610.956 557.062 645.328H574.219C574.219 610.364 589.831 591.689 600.922 582.836C603.444 600.962 610.513 612.414 617.392 623.565C626.074 637.625 634.266 650.895 634.266 679.641C634.266 730.234 598.812 748.266 565.641 748.266V748.266Z" fill="#BFBEC2"/>
<path d="M205.359 336.516H153.891V387.984H205.359V336.516ZM188.203 370.828H171.047V353.672H188.203V370.828Z" fill="#BFBEC2"/>
<path d="M273.984 336.516H222.516V387.984H273.984V336.516ZM256.828 370.828H239.672V353.672H256.828V370.828Z" fill="#BFBEC2"/>
<path d="M342.609 336.516H291.141V387.984H342.609V336.516ZM325.453 370.828H308.297V353.672H325.453V370.828Z" fill="#BFBEC2"/>
<path d="M308.297 439.453H153.891V576.703H308.297V439.453ZM291.141 559.547H171.047V456.609H291.141V559.547Z" fill="#BFBEC2"/>
<path d="M153.891 593.859H205.359V611.016H153.891V593.859Z" fill="#BFBEC2"/>
<path d="M153.891 628.172H205.359V645.328H153.891V628.172Z" fill="#BFBEC2"/>
<path d="M325.453 439.453H445.547V456.609H325.453V439.453Z" fill="#BFBEC2"/>
<path d="M325.453 473.766H428.391V490.922H325.453V473.766Z" fill="#BFBEC2"/>
<path d="M325.453 508.078H428.391V525.234H325.453V508.078Z" fill="#BFBEC2"/>
<path d="M325.453 542.391H376.922V559.547H325.453V542.391Z" fill="#BFBEC2"/>
<path d="M666.104 721.283C666.104 719.037 666.852 717.214 668.35 715.814C669.88 714.414 671.784 713.714 674.062 713.714C676.374 713.714 678.278 714.414 679.775 715.814C681.305 717.214 682.07 719.037 682.07 721.283C682.07 723.496 681.322 725.303 679.824 726.703C678.327 728.07 676.406 728.753 674.062 728.753C671.751 728.753 669.847 728.07 668.35 726.703C666.852 725.303 666.104 723.496 666.104 721.283ZM666.104 681.292C666.104 679.046 666.852 677.223 668.35 675.824C669.88 674.424 671.784 673.724 674.062 673.724C676.374 673.724 678.278 674.424 679.775 675.824C681.305 677.223 682.07 679.046 682.07 681.292C682.07 683.506 681.322 685.313 679.824 686.712C678.327 688.08 676.406 688.763 674.062 688.763C671.751 688.763 669.847 688.08 668.35 686.712C666.852 685.313 666.104 683.506 666.104 681.292ZM764.297 676.019C764.297 679.47 763.434 682.529 761.709 685.199C759.984 687.868 757.607 690 754.58 691.595C758.031 693.255 760.765 695.55 762.783 698.48C764.801 701.377 765.811 704.795 765.811 708.734C765.811 715.049 763.662 720.046 759.365 723.724C755.068 727.37 749.225 729.193 741.836 729.193C734.447 729.193 728.587 727.354 724.258 723.675C719.928 719.997 717.764 715.016 717.764 708.734C717.764 704.795 718.773 701.361 720.791 698.431C722.809 695.501 725.527 693.223 728.945 691.595C725.918 690 723.542 687.868 721.816 685.199C720.124 682.529 719.277 679.47 719.277 676.019C719.277 669.964 721.296 665.147 725.332 661.566C729.368 657.953 734.854 656.146 741.787 656.146C748.688 656.146 754.157 657.936 758.193 661.517C762.262 665.065 764.297 669.899 764.297 676.019ZM751.65 707.708C751.65 704.616 750.755 702.142 748.965 700.287C747.174 698.431 744.766 697.503 741.738 697.503C738.743 697.503 736.351 698.431 734.561 700.287C732.77 702.11 731.875 704.583 731.875 707.708C731.875 710.736 732.754 713.177 734.512 715.033C736.27 716.888 738.711 717.816 741.836 717.816C744.896 717.816 747.288 716.921 749.014 715.13C750.771 713.34 751.65 710.866 751.65 707.708ZM750.186 676.703C750.186 673.936 749.453 671.722 747.988 670.062C746.523 668.369 744.456 667.523 741.787 667.523C739.15 667.523 737.1 668.337 735.635 669.964C734.17 671.592 733.438 673.838 733.438 676.703C733.438 679.535 734.17 681.813 735.635 683.539C737.1 685.264 739.167 686.126 741.836 686.126C744.505 686.126 746.556 685.264 747.988 683.539C749.453 681.813 750.186 679.535 750.186 676.703ZM823.232 698.822C823.232 708.653 821.198 716.172 817.129 721.38C813.06 726.589 807.103 729.193 799.258 729.193C791.51 729.193 785.586 726.638 781.484 721.527C777.383 716.416 775.283 709.092 775.186 699.554V686.468C775.186 676.54 777.236 669.004 781.338 663.861C785.472 658.718 791.413 656.146 799.16 656.146C806.908 656.146 812.832 658.701 816.934 663.812C821.035 668.89 823.135 676.198 823.232 685.736V698.822ZM809.121 684.466C809.121 678.574 808.307 674.294 806.68 671.625C805.085 668.923 802.578 667.572 799.16 667.572C795.84 667.572 793.382 668.858 791.787 671.429C790.225 673.968 789.395 677.956 789.297 683.392V700.677C789.297 706.472 790.078 710.785 791.641 713.617C793.236 716.416 795.775 717.816 799.258 717.816C802.708 717.816 805.199 716.465 806.729 713.763C808.258 711.061 809.056 706.927 809.121 701.361V684.466Z" fill="#BFBEC2"/>
</svg>
