<svg width="1000" height="1000" viewBox="0 0 1000 1000" fill="none" xmlns="http://www.w3.org/2000/svg">
<path d="M700.145 244C669.342 244 644.291 269.051 644.291 299.855C644.291 309.489 646.739 318.557 651.049 326.479L559.55 417.978C546.936 408.156 531.148 402.255 513.964 402.255C496.779 402.255 480.991 408.157 468.368 417.968L396.976 346.577C400.253 341.038 402.255 334.671 402.255 327.782C402.255 307.246 385.554 290.545 365.018 290.545C344.482 290.545 327.782 307.246 327.782 327.782C327.782 348.318 344.482 365.018 365.018 365.018C371.907 365.018 378.274 363.017 383.813 359.74L455.205 431.131C445.393 443.754 439.491 459.543 439.491 476.727C439.491 493.912 445.393 509.7 455.205 522.314L337.314 640.214C327.391 631.212 314.274 625.673 299.855 625.673C269.051 625.673 244 650.723 244 681.527C244 712.331 269.051 737.382 299.855 737.382C330.658 737.382 355.709 712.331 355.709 681.527C355.709 671.892 353.261 662.825 348.951 654.903L468.377 535.477C478.673 543.483 491.091 548.845 504.664 550.548V645.129C478.291 649.578 458.118 672.516 458.118 700.145C458.118 730.949 483.169 756 513.973 756C544.777 756 569.827 730.949 569.827 700.145C569.827 672.525 549.655 649.588 523.282 645.129V550.548C536.855 548.845 549.273 543.483 559.569 535.477L630.96 606.868C627.674 612.417 625.673 618.784 625.673 625.673C625.673 646.209 642.373 662.909 662.909 662.909C683.445 662.909 700.145 646.209 700.145 625.673C700.145 605.137 683.445 588.436 662.909 588.436C656.02 588.436 649.653 590.438 644.114 593.715L572.723 522.323C582.534 509.7 588.436 493.912 588.436 476.727C588.436 459.543 582.534 443.754 572.723 431.141L662.695 341.168C672.609 350.17 685.726 355.709 700.145 355.709C730.949 355.709 756 330.658 756 299.855C756 269.051 730.949 244 700.145 244ZM346.4 327.782C346.4 317.514 354.75 309.164 365.018 309.164C375.286 309.164 383.636 317.514 383.636 327.782C383.636 338.05 375.286 346.4 365.018 346.4C354.75 346.4 346.4 338.05 346.4 327.782ZM299.855 718.764C279.319 718.764 262.618 702.063 262.618 681.527C262.618 660.991 279.319 644.291 299.855 644.291C320.39 644.291 337.091 660.991 337.091 681.527C337.091 702.063 320.39 718.764 299.855 718.764ZM551.2 700.145C551.2 720.681 534.499 737.382 513.964 737.382C493.428 737.382 476.727 720.681 476.727 700.145C476.727 679.61 493.428 662.909 513.964 662.909C534.499 662.909 551.2 679.61 551.2 700.145ZM513.964 532.582C483.16 532.582 458.109 507.531 458.109 476.727C458.109 445.923 483.16 420.873 513.964 420.873C544.767 420.873 569.818 445.923 569.818 476.727C569.818 507.531 544.767 532.582 513.964 532.582ZM681.527 625.673C681.527 635.941 673.177 644.291 662.909 644.291C652.641 644.291 644.291 635.941 644.291 625.673C644.291 615.405 652.641 607.055 662.909 607.055C673.177 607.055 681.527 615.405 681.527 625.673ZM700.145 337.091C679.61 337.091 662.909 320.39 662.909 299.855C662.909 279.319 679.61 262.618 700.145 262.618C720.681 262.618 737.382 279.319 737.382 299.855C737.382 320.39 720.681 337.091 700.145 337.091Z" fill="#BFBEC2"/>
</svg>
