<svg width="1000" height="1000" viewBox="0 0 1000 1000" fill="none" xmlns="http://www.w3.org/2000/svg">
<path d="M740.234 459.461L696.289 415.516C690.43 409.656 682.617 406.727 673.828 406.727H625V327.625C625 302.234 603.516 280.75 578.125 280.75H421.875C395.508 280.75 375 302.234 375 327.625V405.75H325.195C316.406 405.75 308.594 409.656 302.734 415.516L258.789 459.461C252.93 465.32 250 473.133 250 481.922V562H375V546.375C375 538.562 381.836 530.75 390.625 530.75H421.875C429.688 530.75 437.5 538.562 437.5 546.375V562H562.5V546.375C562.5 538.562 569.336 530.75 578.125 530.75H609.375C617.188 530.75 625 538.562 625 546.375V562H750V481.922C750 473.133 746.094 465.32 740.234 459.461ZM562.5 405.75H437.5V343.25H562.5V405.75ZM625 608.875C625 617.664 617.188 624.5 609.375 624.5H578.125C569.336 624.5 562.5 617.664 562.5 608.875V593.25H437.5V608.875C437.5 617.664 429.688 624.5 421.875 624.5H390.625C381.836 624.5 375 617.664 375 608.875V593.25H250V687C250 704.578 263.672 718.25 281.25 718.25H718.75C735.352 718.25 750 704.578 750 687V593.25H625V608.875Z" fill="#BFBEC2"/>
</svg>
