<svg width="1000" height="1000" viewBox="0 0 1000 1000" fill="none" xmlns="http://www.w3.org/2000/svg">
<path d="M387.396 525.796C386.012 544.92 378.932 559.976 366.155 570.962C353.46 581.948 336.696 587.441 315.862 587.441C293.076 587.441 275.132 579.792 262.029 564.492C249.008 549.111 242.498 528.034 242.498 501.26V490.396C242.498 473.306 245.509 458.25 251.531 445.229C257.553 432.209 266.139 422.24 277.288 415.322C288.519 408.324 301.539 404.824 316.351 404.824C336.858 404.824 353.379 410.317 365.911 421.304C378.444 432.29 385.687 447.712 387.64 467.568H351.019C350.123 456.094 346.909 447.793 341.375 442.666C335.923 437.458 327.581 434.854 316.351 434.854C304.144 434.854 294.988 439.248 288.885 448.037C282.863 456.745 279.77 470.295 279.607 488.687V502.114C279.607 521.32 282.496 535.358 288.274 544.229C294.134 553.099 303.33 557.534 315.862 557.534C327.174 557.534 335.597 554.971 341.131 549.844C346.746 544.635 349.961 536.619 350.774 525.796H387.396ZM459.295 407.266L504.949 536.172L550.359 407.266H598.455V585H561.712V536.416L565.374 452.554L517.4 585H492.254L444.402 452.676L448.064 536.416V585H411.443V407.266H459.295ZM722.601 538.369C722.601 531.452 720.159 526.162 715.276 522.5C710.394 518.757 701.604 514.85 688.909 510.781C676.214 506.631 666.163 502.562 658.758 498.574C638.576 487.669 628.484 472.98 628.484 454.507C628.484 444.904 631.17 436.359 636.541 428.872C641.993 421.304 649.765 415.404 659.856 411.172C670.029 406.94 681.422 404.824 694.036 404.824C706.731 404.824 718.043 407.144 727.972 411.782C737.9 416.34 745.59 422.809 751.043 431.191C756.577 439.574 759.344 449.095 759.344 459.756H722.723C722.723 451.618 720.159 445.311 715.032 440.835C709.905 436.278 702.703 433.999 693.426 433.999C684.474 433.999 677.516 435.911 672.552 439.736C667.588 443.48 665.105 448.444 665.105 454.629C665.105 460.407 667.994 465.249 673.772 469.155C679.632 473.062 688.217 476.724 699.529 480.142C720.363 486.408 735.54 494.18 745.062 503.457C754.583 512.734 759.344 524.29 759.344 538.125C759.344 553.506 753.525 565.591 741.888 574.38C730.25 583.088 714.585 587.441 694.891 587.441C681.219 587.441 668.768 584.959 657.537 579.995C646.307 574.95 637.721 568.073 631.78 559.365C625.921 550.658 622.991 540.566 622.991 529.092H659.734C659.734 548.704 671.453 558.511 694.891 558.511C703.598 558.511 710.394 556.761 715.276 553.262C720.159 549.681 722.601 544.717 722.601 538.369Z" fill="#BFBEC2"/>
</svg>
