<svg width="1000" height="1000" viewBox="0 0 1000 1000" fill="none" xmlns="http://www.w3.org/2000/svg">
<path d="M765.875 406.75C775.641 406.75 783.453 397.961 780.523 388.195L757.086 294.445C755.133 286.633 749.273 281.75 742.438 281.75H645.758L670.172 406.75H765.875ZM484.625 281.75H385.992L360.602 406.75H484.625V281.75ZM613.531 281.75H515.875V406.75H638.922L613.531 281.75ZM234.625 406.75H329.352L353.766 281.75H258.062C250.25 281.75 244.391 286.633 242.438 294.445L219 388.195C217.047 397.961 223.883 406.75 234.625 406.75ZM765.875 469.25H746.344L750.25 438H250.25L254.156 469.25H234.625C225.836 469.25 219 477.062 219 484.875V516.125C219 524.914 225.836 531.75 234.625 531.75H261.969L281.5 688V703.625C281.5 712.414 288.336 719.25 297.125 719.25H328.375C336.188 719.25 344 712.414 344 703.625V688H656.5V703.625C656.5 712.414 663.336 719.25 672.125 719.25H703.375C711.188 719.25 719 712.414 719 703.625V688L738.531 531.75H765.875C773.688 531.75 781.5 524.914 781.5 516.125V484.875C781.5 477.062 773.688 469.25 765.875 469.25Z" fill="#BFBEC2"/>
</svg>
