<svg width="1000" height="1000" viewBox="0 0 1000 1000" fill="none" xmlns="http://www.w3.org/2000/svg">
<path d="M743.164 683.117L645.508 585.461C640.625 581.555 634.766 578.625 628.906 578.625H613.281C639.648 544.445 656.25 501.477 656.25 453.625C656.25 342.297 564.453 250.5 453.125 250.5C340.82 250.5 250 342.297 250 453.625C250 565.93 340.82 656.75 453.125 656.75C500 656.75 542.969 641.125 578.125 613.781V630.383C578.125 636.242 580.078 642.102 584.961 646.984L681.641 743.664C691.406 753.43 706.055 753.43 714.844 743.664L742.188 716.32C751.953 707.531 751.953 692.883 743.164 683.117ZM453.125 594.25C375 594.25 312.5 531.75 312.5 453.625C312.5 376.477 375 313 453.125 313C530.273 313 593.75 376.477 593.75 453.625C593.75 531.75 530.273 594.25 453.125 594.25ZM453.125 359.875C413.086 359.875 380.859 393.078 380.859 432.141C380.859 464.367 427.734 522.961 445.312 544.445C447.266 546.398 450.195 548.352 453.125 548.352C455.078 548.352 458.008 546.398 459.961 544.445C477.539 522.961 524.414 464.367 524.414 432.141C524.414 393.078 492.188 359.875 453.125 359.875ZM453.125 453.625C439.453 453.625 429.688 443.859 429.688 430.188C429.688 417.492 439.453 406.75 453.125 406.75C465.82 406.75 476.562 417.492 476.562 430.188C476.562 443.859 465.82 453.625 453.125 453.625Z" fill="#BFBEC2"/>
</svg>
