<svg width="1000" height="1000" viewBox="0 0 1000 1000" fill="none" xmlns="http://www.w3.org/2000/svg">
<path d="M537.555 628.266V547.217H618.811L772 692.851L688.745 772L537.555 628.266Z" stroke="#BFBEC2" stroke-width="34"/>
<path d="M593.24 410.113C593.24 499.941 516.338 574.226 419.62 574.226C322.902 574.226 246 499.941 246 410.113C246 320.285 322.902 246 419.62 246C516.338 246 593.24 320.285 593.24 410.113Z" stroke="#BFBEC2" stroke-width="34"/>
<path d="M514.625 412.344C514.625 406.094 513.844 401.406 513.062 396.328H420.875V429.531H475.562C473.609 443.984 459.156 471.328 420.875 471.328C387.672 471.328 360.719 443.984 360.719 410C360.719 355.703 424.781 330.703 459.156 363.906L485.719 338.516C468.922 322.891 446.656 313.125 420.875 313.125C366.969 313.125 324 356.484 324 410C324 463.906 366.969 506.875 420.875 506.875C476.734 506.875 514.625 467.812 514.625 412.344Z" fill="#BFBEC2"/>
</svg>
