<svg width="1000" height="1000" viewBox="0 0 1000 1000" fill="none" xmlns="http://www.w3.org/2000/svg">
<path d="M497.906 190.156C498.492 190.156 499.078 190.742 499.664 190.742C500.25 190.742 501.422 190.742 501.422 190.156C501.422 189.57 500.25 188.984 499.664 188.398C498.492 187.812 497.32 187.812 496.734 188.398C496.148 188.398 496.148 188.984 496.148 188.984C496.148 189.57 497.32 189.57 497.906 190.156ZM485.016 190.742C486.188 190.742 486.188 190.156 486.773 190.156C487.945 189.57 489.117 189.57 489.117 188.984C489.117 188.984 489.117 188.398 488.531 188.398C487.945 187.812 486.773 187.812 485.602 188.398C485.016 188.984 483.258 189.57 483.844 190.156C483.844 190.742 484.43 191.328 485.016 190.742ZM615.094 354.219C612.75 351.875 611.578 347.773 610.406 343.086C609.82 337.812 608.062 333.125 604.547 329.609C603.961 329.023 602.789 328.438 602.203 327.852C601.617 327.266 600.445 327.266 599.859 326.68C605.133 310.859 602.789 295.039 597.516 280.391C591.07 262.812 579.352 247.578 570.562 237.031C560.016 224.141 550.641 212.422 550.641 194.844C551.227 167.891 553.57 118.086 506.109 117.5C446.344 117.5 461.578 178.438 460.406 197.188C459.82 210.664 456.891 221.211 447.516 234.688C436.383 248.164 420.562 269.258 413.531 291.523C410.016 302.07 408.258 312.617 410.016 322.578C405.914 326.094 402.984 331.367 400.055 334.883C397.711 337.227 394.195 337.812 390.094 339.57C385.992 340.742 381.891 343.086 379.547 347.773C377.789 350.117 377.789 352.461 377.789 355.391C377.789 357.734 377.789 360.078 378.375 362.422C378.961 367.109 379.547 371.211 378.961 374.141C376.031 382.93 375.445 388.789 377.789 392.891C379.547 396.992 384.234 399.336 389.508 399.922C399.469 402.266 412.945 401.68 424.078 407.539C435.797 413.398 447.516 415.742 456.891 413.398C463.336 412.227 469.195 408.125 472.125 401.68C479.156 401.68 487.359 398.75 500.25 397.578C509.039 396.992 520.172 401.094 532.477 400.508C533.062 401.68 533.648 402.852 534.234 404.023C538.922 413.984 547.711 418.672 557.672 417.5C567.633 416.914 577.594 411.055 585.797 401.094C594 391.719 606.891 387.617 615.68 382.344C620.367 380 623.883 376.484 623.883 371.797C623.883 367.109 621.539 361.836 615.094 354.219ZM499.664 169.062C505.523 156.172 519.586 156.172 525.445 168.477C529.547 177.266 527.789 186.641 523.102 192.5C521.93 191.914 519.586 190.742 515.484 189.57C516.07 188.984 517.242 187.812 517.828 186.641C520.758 179.609 517.828 170.82 512.555 170.82C508.453 170.234 504.352 177.266 505.523 184.297C503.18 183.125 500.25 181.953 497.906 181.953C497.32 177.852 497.906 173.164 499.664 169.062ZM476.227 162.031C482.086 162.031 487.945 170.234 487.359 181.953C485.016 182.539 483.258 183.125 480.914 184.297C482.086 179.023 479.156 172.578 475.641 173.164C470.367 173.164 469.781 185.469 474.469 189.57C475.055 190.156 475.641 189.57 470.953 192.5C462.164 184.297 465.094 162.031 476.227 162.031ZM468.023 197.773C471.539 194.844 476.227 191.914 476.227 191.328C479.156 188.984 484.43 183.125 492.633 183.125C496.734 183.125 502.008 184.883 507.867 188.398C511.383 190.742 514.312 191.328 520.758 193.672C526.031 196.016 528.961 199.531 527.203 204.805C525.445 208.906 520.758 213.008 513.727 215.352C507.281 217.109 502.008 224.727 491.461 224.141C489.117 223.555 487.359 223.555 485.602 222.969C480.914 220.625 478.57 216.523 473.883 214.18C469.195 211.25 466.266 207.734 465.68 204.805C464.508 201.875 465.68 199.531 468.023 197.773ZM469.781 393.477C468.609 413.984 444 413.398 425.836 404.023C408.258 394.648 385.406 399.922 380.719 391.133C379.547 388.203 379.547 383.516 382.477 375.898V375.312C383.648 371.211 383.062 365.938 381.891 361.836C381.305 357.148 381.305 353.047 382.477 350.117C384.82 346.016 387.75 344.258 391.266 343.086C397.125 341.328 398.297 341.328 402.984 337.227C405.914 334.297 408.258 329.609 411.188 326.68C414.117 323.75 417.047 321.992 421.734 322.578C426.422 323.75 430.523 326.68 434.625 331.953L445.758 353.047C451.617 364.766 470.953 381.172 469.781 393.477ZM469.195 378.242C466.852 374.141 463.336 370.039 460.406 366.523C465.094 366.523 469.195 365.352 470.367 361.836C471.539 357.734 470.367 353.047 466.266 347.188C458.062 336.055 443.414 327.852 443.414 327.852C435.797 323.164 431.109 316.719 429.352 310.273C427.008 303.828 427.594 296.797 429.352 289.766C432.281 276.289 439.898 263.398 445.172 255.195C446.344 254.023 445.758 256.953 439.898 267.5C435.211 276.875 425.836 298.555 438.141 315.547C438.727 303.242 441.656 290.938 446.344 279.805C453.375 263.398 468.609 235.859 469.781 213.594C470.367 214.18 472.125 215.352 473.297 215.938C475.641 217.695 477.984 220.039 480.328 221.797C487.945 227.656 497.32 227.07 505.523 222.383C509.039 220.625 511.969 218.281 514.898 217.109C520.758 215.352 524.859 212.422 527.789 208.32C532.477 226.484 543.023 252.266 549.469 264.57C552.984 271.602 560.016 285.664 563.531 302.656C565.289 302.656 567.633 302.656 569.977 303.242C577.594 282.148 562.945 259.883 555.914 253.438C553.57 251.094 552.984 249.922 554.742 249.922C561.773 256.367 571.734 269.258 575.25 284.492C577.008 290.938 577.008 297.969 575.25 305C585.211 309.102 596.344 315.547 593.414 325.508C592.242 325.508 591.656 325.508 591.07 325.508C592.828 319.648 588.727 315.547 577.594 310.273C565.875 305.586 556.5 305.586 555.328 317.891C548.297 320.234 544.195 326.094 542.438 333.711C541.266 340.156 540.68 348.359 540.094 357.148C539.508 361.836 537.75 367.695 535.992 374.141C517.242 387.617 490.875 393.477 469.195 378.242ZM619.781 371.797C619.195 381.172 595.758 382.93 582.867 398.75C575.25 408.125 565.875 412.812 557.086 413.984C548.883 414.57 541.852 411.055 537.75 402.266C534.82 395.82 535.992 388.789 538.336 381.172C540.68 372.969 543.609 364.18 544.195 357.148C544.781 348.359 544.781 340.742 546.539 334.883C548.297 328.438 550.641 324.336 554.742 322.578C554.742 321.992 554.742 321.992 555.328 321.992C555.328 329.609 559.43 337.812 565.875 339.57C573.492 341.328 584.039 334.883 588.727 329.609C594 329.609 598.102 329.023 601.617 332.539C607.477 337.812 606.305 350.703 612.164 357.148C618.023 364.18 620.367 368.281 619.781 371.797ZM470.367 204.805C471.539 205.977 473.297 207.734 475.055 208.906C478.57 211.836 484.43 215.352 490.875 215.352C497.906 215.352 504.352 211.836 509.625 208.906C512.555 207.148 516.07 204.805 518.414 203.047C520.758 200.703 521.93 198.945 520.172 198.945C518.414 198.945 518.414 200.703 516.656 201.875C513.727 203.633 510.797 206.562 508.453 207.734C504.352 210.078 496.734 213.594 490.875 213.594C485.016 213.594 479.742 210.664 476.227 207.734C474.469 206.562 472.711 204.805 471.539 204.219C470.953 203.047 470.953 201.289 469.195 201.289C468.609 201.289 468.023 203.047 470.367 204.805Z" fill="#BFBEC2"/>
<path d="M165 517.578V606.641H272.227V502.93L165 517.578ZM165 708.008L272.227 722.656V620.117H165V708.008ZM283.945 724.414L427.5 743.75V620.117H283.945V724.414ZM283.945 501.172V606.641H427.5V481.25L283.945 501.172Z" fill="#BFBEC2"/>
<path d="M645.312 467.188C565.039 467.188 500 532.227 500 612.5C500 692.773 565.039 757.812 645.312 757.812C725.586 757.812 790.625 692.773 790.625 612.5C790.625 532.227 725.586 467.188 645.312 467.188ZM675.781 521.68C681.055 512.891 692.773 509.961 701.562 515.234C710.352 520.508 713.281 531.641 708.008 540.43C703.32 549.805 691.602 552.734 682.812 547.461C674.023 542.188 670.508 531.055 675.781 521.68ZM550.977 631.25C540.43 631.25 532.227 623.047 532.227 612.5C532.227 602.539 540.43 594.336 550.977 594.336C561.523 594.336 569.727 602.539 569.727 612.5C569.727 623.047 561.523 631.25 550.977 631.25ZM567.383 633.008C580.273 623.047 580.273 603.125 567.383 592.578C572.656 573.242 584.375 556.836 600.781 545.703L614.258 569.141C584.375 590.234 584.375 635.352 614.258 656.445L600.781 679.297C584.375 668.75 572.656 652.344 567.383 633.008ZM701.562 710.352C692.188 715.625 681.055 712.695 675.781 703.32C670.508 694.531 674.023 683.398 682.812 678.125C691.602 672.852 703.32 675.781 708.008 685.156C713.281 693.945 710.352 705.078 701.562 710.352ZM701.562 669.922C685.742 663.477 668.75 673.438 666.406 690.43C662.891 691.016 637.695 698.633 609.57 684.57L622.461 661.133C655.859 676.367 695.117 654.102 698.047 617.773H725C723.828 638.281 715.039 656.445 701.562 669.922ZM698.047 607.812C695.117 571.484 656.445 548.633 622.461 564.453L609.57 541.016C637.695 526.953 662.891 534.57 665.82 535.156C668.75 552.148 685.742 562.109 701.562 555.664C715.039 569.141 723.828 587.305 725 607.812H698.047Z" fill="#BFBEC2"/>
</svg>
