<svg width="1000" height="1000" viewBox="0 0 1000 1000" fill="none" xmlns="http://www.w3.org/2000/svg">
<path d="M484.81 585H448.188V407.266H484.81V585ZM555.488 522.378V585H518.867V407.266H588.203C601.549 407.266 613.268 409.707 623.359 414.59C633.532 419.473 641.344 426.431 646.797 435.464C652.249 444.416 654.976 454.629 654.976 466.104C654.976 483.519 648.994 497.272 637.031 507.363C625.15 517.373 608.67 522.378 587.593 522.378H555.488ZM555.488 492.715H588.203C597.887 492.715 605.252 490.436 610.298 485.879C615.425 481.322 617.988 474.811 617.988 466.348C617.988 457.64 615.425 450.601 610.298 445.229C605.171 439.858 598.091 437.091 589.058 436.929H555.488V492.715Z" fill="#BFBEC2"/>
<path d="M766.319 499.715C766.319 625.394 663.805 727.429 537.159 727.429C410.514 727.429 308 625.394 308 499.715C308 374.035 410.514 272 537.159 272C663.805 272 766.319 374.035 766.319 499.715Z" stroke="#BFBEC2" stroke-width="30"/>
<path d="M436.337 589.752L258.025 667.284L308.415 539.362L436.337 589.752Z" fill="#BFBEC2"/>
</svg>
