<svg width="1000" height="1000" viewBox="0 0 1000 1000" fill="none" xmlns="http://www.w3.org/2000/svg">
<path d="M376 682H360C355.582 682 352 685.582 352 690C352 694.418 355.582 698 360 698H376C380.418 698 384 694.418 384 690C384 685.582 380.418 682 376 682Z" fill="#BFBEC2"/>
<path d="M600 682H408C403.582 682 400 685.582 400 690C400 694.418 403.582 698 408 698H600C604.418 698 608 694.418 608 690C608 685.582 604.418 682 600 682Z" fill="#BFBEC2"/>
<path d="M376 634H360C355.582 634 352 637.582 352 642C352 646.418 355.582 650 360 650H376C380.418 650 384 646.418 384 642C384 637.582 380.418 634 376 634Z" fill="#BFBEC2"/>
<path d="M600 634H408C403.582 634 400 637.582 400 642C400 646.418 403.582 650 408 650H600C604.418 650 608 646.418 608 642C608 637.582 604.418 634 600 634Z" fill="#BFBEC2"/>
<path d="M376 586H360C355.582 586 352 589.582 352 594C352 598.418 355.582 602 360 602H376C380.418 602 384 598.418 384 594C384 589.582 380.418 586 376 586Z" fill="#BFBEC2"/>
<path d="M600 586H408C403.582 586 400 589.582 400 594C400 598.418 403.582 602 408 602H600C604.418 602 608 598.418 608 594C608 589.582 604.418 586 600 586Z" fill="#BFBEC2"/>
<path d="M376 538H360C355.582 538 352 541.582 352 546C352 550.418 355.582 554 360 554H376C380.418 554 384 550.418 384 546C384 541.582 380.418 538 376 538Z" fill="#BFBEC2"/>
<path d="M600 538H408C403.582 538 400 541.582 400 546C400 550.418 403.582 554 408 554H600C604.418 554 608 550.418 608 546C608 541.582 604.418 538 600 538Z" fill="#BFBEC2"/>
<path d="M376 490H360C355.582 490 352 493.582 352 498C352 502.418 355.582 506 360 506H376C380.418 506 384 502.418 384 498C384 493.582 380.418 490 376 490Z" fill="#BFBEC2"/>
<path d="M600 490H408C403.582 490 400 493.582 400 498C400 502.418 403.582 506 408 506H600C604.418 506 608 502.418 608 498C608 493.582 604.418 490 600 490Z" fill="#BFBEC2"/>
<path d="M655.896 457.496C655.856 456.795 655.719 456.103 655.488 455.44C655.4 455.184 655.336 454.936 655.224 454.688C654.835 453.818 654.293 453.024 653.624 452.344L541.624 340.344C540.944 339.675 540.15 339.133 539.28 338.744C539.032 338.632 538.784 338.568 538.536 338.48C537.867 338.25 537.17 338.11 536.464 338.064C536.328 338.088 536.176 338 536 338H312C307.582 338 304 341.582 304 346V370H264C259.582 370 256 373.582 256 378V810C256 814.418 259.582 818 264 818H600C604.418 818 608 814.418 608 810V770H648C652.418 770 656 766.418 656 762V458C656 457.824 655.912 457.672 655.896 457.496ZM544 365.312L628.688 450H544V365.312ZM592 802H272V386H304V762C304 766.418 307.582 770 312 770H592V802ZM640 754H320V354H528V458C528 462.418 531.582 466 536 466H640V754Z" fill="#BFBEC2"/>
<path d="M408 410H360C355.582 410 352 413.582 352 418V466C352 470.418 355.582 474 360 474H408C412.418 474 416 470.418 416 466V418C416 413.582 412.418 410 408 410ZM400 458H368V426H400V458Z" fill="#BFBEC2"/>
<path d="M696 382C691.06 381.983 686.234 380.513 682.122 377.775C676.095 381.233 671.081 386.875 667.867 393.9C665.301 399.588 663.982 405.76 664 412C664 432.953 678.355 450 696 450C713.645 450 728 432.953 728 412C728.018 405.76 726.7 399.588 724.134 393.9C720.919 386.875 715.906 381.231 709.879 377.773C705.767 380.512 700.941 381.982 696 382V382Z" fill="#BFBEC2"/>
<path d="M696 374C707.046 374 716 363.255 716 350C716 336.745 707.046 326 696 326C684.954 326 676 336.745 676 350C676 363.255 684.954 374 696 374Z" fill="#BFBEC2"/>
<path d="M758.205 421.292C749.235 404.783 738.577 394.986 730.917 389.555C731.081 389.893 731.249 390.227 731.406 390.57C733.311 394.756 734.637 399.181 735.347 403.724C749.378 417.617 765.838 444.376 768.003 494.174C768.048 495.203 768.488 496.175 769.232 496.888C769.976 497.601 770.966 497.999 771.996 498C772.055 498 772.114 498 772.173 497.996C773.233 497.95 774.231 497.485 774.948 496.702C775.665 495.92 776.042 494.886 775.995 493.826C774.749 465.127 768.762 440.722 758.205 421.292V421.292Z" fill="#BFBEC2"/>
<path d="M797.789 286.423C796.84 285.948 795.742 285.87 794.735 286.205C793.729 286.541 792.897 287.262 792.423 288.211L769.163 334.729L723.995 349.784C723.995 349.856 724 349.928 724 350C724 352.883 723.657 355.755 722.976 358.557L773.265 341.795C773.763 341.629 774.224 341.366 774.621 341.022C775.017 340.678 775.343 340.259 775.578 339.789L799.578 291.789C800.052 290.84 800.13 289.742 799.795 288.735C799.459 287.729 798.738 286.897 797.789 286.423Z" fill="#BFBEC2"/>
<path d="M800.001 386H758.001L747.201 371.6C746.712 370.949 746.037 370.462 745.265 370.205L721.815 362.39C720.879 364.931 719.636 367.349 718.115 369.59L741.551 377.4L752.801 392.4C753.173 392.897 753.656 393.3 754.212 393.578C754.767 393.855 755.38 394 756.001 394H800.001C801.062 394 802.079 393.579 802.829 392.828C803.579 392.078 804.001 391.061 804.001 390C804.001 388.939 803.579 387.922 802.829 387.172C802.079 386.421 801.062 386 800.001 386Z" fill="#BFBEC2"/>
<path d="M656.652 403.724C657.363 399.18 658.689 394.754 660.594 390.568C660.75 390.226 660.918 389.892 661.082 389.555C653.422 394.986 642.764 404.783 633.794 421.291C623.237 440.722 617.252 465.126 616.004 493.826C615.958 494.886 616.334 495.92 617.051 496.702C617.768 497.484 618.766 497.95 619.826 497.996C619.885 497.999 619.944 498 620.003 498C621.033 497.999 622.023 497.601 622.767 496.888C623.511 496.175 623.951 495.203 623.996 494.174C626.161 444.376 642.621 417.616 656.652 403.724V403.724Z" fill="#BFBEC2"/>
<path d="M748.528 258.035C748.008 257.966 747.478 257.999 746.971 258.134C746.463 258.269 745.987 258.503 745.57 258.822C745.152 259.141 744.802 259.539 744.539 259.994C744.275 260.448 744.104 260.95 744.034 261.471L736.263 319.753L719.13 331.991C720.528 334.339 721.636 336.849 722.43 339.464L742.324 325.255C742.77 324.937 743.145 324.531 743.427 324.062C743.709 323.593 743.892 323.071 743.964 322.529L751.964 262.529C752.034 262.008 752 261.479 751.865 260.971C751.73 260.464 751.496 259.988 751.177 259.57C750.858 259.153 750.46 258.803 750.005 258.539C749.551 258.276 749.049 258.104 748.528 258.035V258.035Z" fill="#BFBEC2"/>
<path d="M705.519 319.906C708.026 320.955 710.36 322.376 712.444 324.122C714.782 318.6 716.485 310.024 711.578 300.211C711.099 299.271 710.267 298.558 709.265 298.228C708.262 297.898 707.17 297.978 706.226 298.45C705.282 298.922 704.562 299.748 704.225 300.748C703.887 301.748 703.959 302.841 704.423 303.789C707.582 310.106 707.063 315.674 705.519 319.906Z" fill="#BFBEC2"/>
<path d="M686.483 319.906C684.939 315.674 684.42 310.106 687.578 303.789C687.818 303.319 687.962 302.806 688.003 302.279C688.043 301.753 687.979 301.224 687.814 300.722C687.649 300.221 687.387 299.757 687.042 299.357C686.697 298.958 686.276 298.631 685.804 298.394C685.332 298.158 684.817 298.018 684.291 297.982C683.764 297.945 683.235 298.013 682.735 298.182C682.235 298.351 681.773 298.617 681.376 298.966C680.98 299.314 680.656 299.737 680.423 300.211C675.516 310.025 677.22 318.6 679.558 324.122C681.641 322.376 683.976 320.955 686.483 319.906Z" fill="#BFBEC2"/>
<path d="M672.87 331.991L655.736 319.753L647.965 261.471C647.825 260.419 647.273 259.467 646.43 258.822C645.587 258.178 644.523 257.895 643.471 258.035C642.42 258.175 641.467 258.728 640.822 259.57C640.178 260.413 639.895 261.477 640.035 262.529L648.035 322.529C648.108 323.071 648.29 323.593 648.572 324.062C648.855 324.531 649.23 324.937 649.675 325.255L669.567 339.464C670.362 336.848 671.471 334.339 672.87 331.991Z" fill="#BFBEC2"/>
<path d="M667.999 350C667.999 349.928 668.004 349.856 668.004 349.784L622.836 334.729L599.577 288.211C599.344 287.737 599.02 287.314 598.624 286.966C598.227 286.617 597.765 286.351 597.265 286.182C596.765 286.013 596.236 285.945 595.709 285.982C595.183 286.018 594.668 286.158 594.196 286.394C593.724 286.631 593.303 286.958 592.958 287.357C592.613 287.757 592.351 288.221 592.186 288.722C592.021 289.224 591.957 289.753 591.997 290.279C592.038 290.806 592.182 291.319 592.422 291.789L616.422 339.789C616.657 340.259 616.982 340.678 617.379 341.022C617.776 341.366 618.236 341.629 618.735 341.795L669.024 358.557C668.343 355.755 667.999 352.883 667.999 350V350Z" fill="#BFBEC2"/>
<path d="M670.185 362.39L646.735 370.205C645.963 370.462 645.288 370.949 644.799 371.6L634 386H592C590.939 386 589.922 386.421 589.172 387.172C588.421 387.922 588 388.939 588 390C588 391.061 588.421 392.078 589.172 392.828C589.922 393.579 590.939 394 592 394H636C636.621 394 637.233 393.855 637.789 393.578C638.344 393.3 638.827 392.897 639.2 392.4L650.45 377.4L673.883 369.59C672.363 367.349 671.121 364.931 670.185 362.39V362.39Z" fill="#BFBEC2"/>
<path d="M212.035 274C211.384 272.73 210.912 271.152 210.619 269.264C207.201 273.072 202.758 274.977 197.289 274.977C192.113 274.977 187.816 273.479 184.398 270.484C181.013 267.49 179.32 263.714 179.32 259.156C179.32 253.557 181.387 249.26 185.521 246.266C189.688 243.271 195.694 241.757 203.539 241.725H210.033V238.697C210.033 236.256 209.398 234.303 208.129 232.838C206.892 231.373 204.923 230.641 202.221 230.641C199.844 230.641 197.973 231.21 196.605 232.35C195.271 233.489 194.604 235.051 194.604 237.037H180.492C180.492 233.977 181.436 231.145 183.324 228.541C185.212 225.937 187.882 223.902 191.332 222.438C194.783 220.94 198.656 220.191 202.953 220.191C209.464 220.191 214.623 221.835 218.432 225.123C222.273 228.378 224.193 232.968 224.193 238.893V261.793C224.226 266.806 224.926 270.598 226.293 273.17V274H212.035ZM200.365 264.186C202.449 264.186 204.369 263.73 206.127 262.818C207.885 261.874 209.187 260.621 210.033 259.059V249.977H204.76C197.696 249.977 193.936 252.418 193.48 257.301L193.432 258.131C193.432 259.889 194.05 261.337 195.287 262.477C196.524 263.616 198.217 264.186 200.365 264.186ZM249.926 274H235.766V199H249.926V274ZM276.488 274H262.328V199H276.488V274ZM285.961 247.096C285.961 241.855 286.97 237.184 288.988 233.082C291.007 228.98 293.904 225.807 297.68 223.561C301.488 221.314 305.899 220.191 310.912 220.191C318.041 220.191 323.852 222.372 328.344 226.734C332.868 231.096 335.391 237.021 335.912 244.508L336.01 248.121C336.01 256.227 333.747 262.737 329.223 267.652C324.698 272.535 318.627 274.977 311.01 274.977C303.393 274.977 297.305 272.535 292.748 267.652C288.223 262.77 285.961 256.129 285.961 247.73V247.096ZM300.072 248.121C300.072 253.134 301.016 256.975 302.904 259.645C304.792 262.281 307.494 263.6 311.01 263.6C314.428 263.6 317.097 262.298 319.018 259.693C320.938 257.057 321.898 252.857 321.898 247.096C321.898 242.18 320.938 238.372 319.018 235.67C317.097 232.968 314.395 231.617 310.912 231.617C307.462 231.617 304.792 232.968 302.904 235.67C301.016 238.339 300.072 242.49 300.072 248.121ZM390.648 254.811L397.582 221.168H411.205L397.729 274H385.912L375.902 240.748L365.893 274H354.125L340.648 221.168H354.271L361.156 254.762L370.824 221.168H381.029L390.648 254.811ZM443.822 267.066C443.822 264.82 444.571 262.997 446.068 261.598C447.598 260.198 449.503 259.498 451.781 259.498C454.092 259.498 455.997 260.198 457.494 261.598C459.024 262.997 459.789 264.82 459.789 267.066C459.789 269.28 459.04 271.087 457.543 272.486C456.046 273.854 454.125 274.537 451.781 274.537C449.47 274.537 447.566 273.854 446.068 272.486C444.571 271.087 443.822 269.28 443.822 267.066ZM443.822 227.076C443.822 224.83 444.571 223.007 446.068 221.607C447.598 220.208 449.503 219.508 451.781 219.508C454.092 219.508 455.997 220.208 457.494 221.607C459.024 223.007 459.789 224.83 459.789 227.076C459.789 229.29 459.04 231.096 457.543 232.496C456.046 233.863 454.125 234.547 451.781 234.547C449.47 234.547 447.566 233.863 446.068 232.496C444.571 231.096 443.822 229.29 443.822 227.076ZM475.805 280.104H465.307L491.479 202.906H501.977L475.805 280.104Z" fill="#BFBEC2"/>
</svg>
