<svg width="1000" height="1000" viewBox="0 0 1000 1000" fill="none" xmlns="http://www.w3.org/2000/svg">
<path d="M492.188 292.469C376.953 292.469 284.18 385.242 284.18 499.5C284.18 614.734 376.953 707.508 492.188 707.508C606.445 707.508 699.219 614.734 699.219 499.5C699.219 385.242 606.445 292.469 492.188 292.469ZM396.484 422.352C396.484 369.617 439.453 326.648 492.188 326.648C543.945 326.648 586.914 369.617 586.914 422.352V447.742C586.914 452.625 583.008 456.531 578.125 456.531H560.547C555.664 456.531 551.758 452.625 551.758 447.742V422.352C551.758 342.273 430.664 342.273 430.664 422.352V447.742C430.664 452.625 427.734 456.531 422.852 456.531H405.273C400.391 456.531 396.484 452.625 396.484 447.742V422.352ZM629.883 620.594C629.883 630.359 622.07 638.172 613.281 638.172H371.094C361.328 638.172 353.516 630.359 353.516 620.594V482.898C353.516 473.133 361.328 465.32 371.094 465.32H613.281C622.07 465.32 629.883 473.133 629.883 482.898V620.594ZM387.695 486.805C387.695 484.852 385.742 482.898 383.789 482.898H375C372.07 482.898 371.094 484.852 371.094 486.805V616.688C371.094 619.617 372.07 620.594 375 620.594H383.789C385.742 620.594 387.695 619.617 387.695 616.688V486.805ZM526.367 534.656C526.367 515.125 510.742 499.5 491.211 499.5C472.656 499.5 457.031 515.125 457.031 534.656C457.031 547.352 463.867 558.094 474.609 563.953V595.203C474.609 600.086 478.516 603.992 483.398 603.992H500C504.883 603.992 508.789 600.086 508.789 595.203V563.953C519.531 558.094 526.367 547.352 526.367 534.656ZM492.188 257.312C358.398 257.312 250 365.711 250 499.5C250 633.289 358.398 741.688 492.188 741.688C625.977 741.688 734.375 633.289 734.375 499.5C734.375 365.711 625.977 257.312 492.188 257.312ZM492.188 725.086C368.164 725.086 266.602 623.523 266.602 499.5C266.602 375.477 368.164 274.891 492.188 274.891C616.211 274.891 716.797 375.477 716.797 499.5C716.797 623.523 616.211 725.086 492.188 725.086Z" fill="#BFBEC2"/>
</svg>
