<svg width="1000" height="1000" viewBox="0 0 1000 1000" fill="none" xmlns="http://www.w3.org/2000/svg">
<path d="M123.301 474.055L92.6367 465.363L98.3984 447.688L128.77 459.895L126.816 425.812H145.957L144.004 460.578L173.594 448.566L179.355 466.438L148.105 475.129L168.613 501.105L153.086 512.141L135.312 483.625L117.734 511.164L102.207 500.617L123.301 474.055ZM192.93 554.133C192.93 549.641 194.427 545.995 197.422 543.195C200.482 540.396 204.29 538.996 208.848 538.996C213.47 538.996 217.279 540.396 220.273 543.195C223.333 545.995 224.863 549.641 224.863 554.133C224.863 558.56 223.366 562.173 220.371 564.973C217.376 567.707 213.535 569.074 208.848 569.074C204.225 569.074 200.417 567.707 197.422 564.973C194.427 562.173 192.93 558.56 192.93 554.133ZM245.273 514.387C245.273 497.915 248.952 484.797 256.309 475.031C263.73 465.266 273.854 460.383 286.68 460.383C296.966 460.383 305.462 464.224 312.168 471.906V418H340.488V568H315L313.633 556.77C306.602 565.559 297.552 569.953 286.484 569.953C274.049 569.953 264.056 565.07 256.504 555.305C249.017 545.474 245.273 531.835 245.273 514.387ZM273.496 516.438C273.496 526.333 275.221 533.918 278.672 539.191C282.122 544.465 287.135 547.102 293.711 547.102C302.435 547.102 308.587 543.423 312.168 536.066V494.367C308.652 487.01 302.565 483.332 293.906 483.332C280.299 483.332 273.496 494.367 273.496 516.438ZM357.969 514.191C357.969 503.71 359.987 494.367 364.023 486.164C368.06 477.961 373.854 471.613 381.406 467.121C389.023 462.629 397.845 460.383 407.871 460.383C422.129 460.383 433.75 464.745 442.734 473.469C451.784 482.193 456.829 494.042 457.871 509.016L458.066 516.242C458.066 532.453 453.542 545.474 444.492 555.305C435.443 565.07 423.301 569.953 408.066 569.953C392.832 569.953 380.658 565.07 371.543 555.305C362.493 545.539 357.969 532.258 357.969 515.461V514.191ZM386.191 516.242C386.191 526.268 388.079 533.951 391.855 539.289C395.632 544.562 401.035 547.199 408.066 547.199C414.902 547.199 420.241 544.595 424.082 539.387C427.923 534.113 429.844 525.715 429.844 514.191C429.844 504.361 427.923 496.743 424.082 491.34C420.241 485.936 414.837 483.234 407.871 483.234C400.97 483.234 395.632 485.936 391.855 491.34C388.079 496.678 386.191 504.979 386.191 516.242ZM501.914 462.336L502.793 474.152C510.28 464.973 520.404 460.383 533.164 460.383C546.771 460.383 556.113 465.754 561.191 476.496C568.613 465.754 579.193 460.383 592.93 460.383C604.388 460.383 612.917 463.736 618.516 470.441C624.115 477.082 626.914 487.108 626.914 500.52V568H598.594V500.617C598.594 494.628 597.422 490.266 595.078 487.531C592.734 484.732 588.6 483.332 582.676 483.332C574.212 483.332 568.353 487.368 565.098 495.441L565.195 568H536.973V500.715C536.973 494.595 535.768 490.168 533.359 487.434C530.951 484.699 526.849 483.332 521.055 483.332C513.047 483.332 507.253 486.652 503.672 493.293V568H475.449V462.336H501.914ZM709.922 568C708.62 565.461 707.676 562.303 707.09 558.527C700.254 566.145 691.367 569.953 680.43 569.953C670.078 569.953 661.484 566.958 654.648 560.969C647.878 554.979 644.492 547.427 644.492 538.312C644.492 527.115 648.626 518.521 656.895 512.531C665.228 506.542 677.24 503.514 692.93 503.449H705.918V497.395C705.918 492.512 704.648 488.605 702.109 485.676C699.635 482.746 695.697 481.281 690.293 481.281C685.54 481.281 681.797 482.421 679.062 484.699C676.393 486.978 675.059 490.103 675.059 494.074H646.836C646.836 487.954 648.724 482.29 652.5 477.082C656.276 471.874 661.615 467.805 668.516 464.875C675.417 461.88 683.164 460.383 691.758 460.383C704.779 460.383 715.098 463.671 722.715 470.246C730.397 476.757 734.238 485.936 734.238 497.785V543.586C734.303 553.612 735.703 561.197 738.438 566.34V568H709.922ZM686.582 548.371C690.749 548.371 694.59 547.46 698.105 545.637C701.621 543.749 704.225 541.242 705.918 538.117V519.953H695.371C681.243 519.953 673.724 524.836 672.812 534.602L672.715 536.262C672.715 539.777 673.952 542.674 676.426 544.953C678.9 547.232 682.285 548.371 686.582 548.371ZM785.703 568H757.383V462.336H785.703V568ZM755.723 434.992C755.723 430.76 757.122 427.277 759.922 424.543C762.786 421.809 766.66 420.441 771.543 420.441C776.361 420.441 780.202 421.809 783.066 424.543C785.931 427.277 787.363 430.76 787.363 434.992C787.363 439.289 785.898 442.805 782.969 445.539C780.104 448.273 776.296 449.641 771.543 449.641C766.79 449.641 762.949 448.273 760.02 445.539C757.155 442.805 755.723 439.289 755.723 434.992ZM835.02 462.336L835.898 474.543C843.451 465.103 853.574 460.383 866.27 460.383C877.467 460.383 885.801 463.671 891.27 470.246C896.738 476.822 899.538 486.652 899.668 499.738V568H871.445V500.422C871.445 494.432 870.143 490.103 867.539 487.434C864.935 484.699 860.605 483.332 854.551 483.332C846.608 483.332 840.651 486.717 836.68 493.488V568H808.457V462.336H835.02Z" fill="#BFBEC2"/>
</svg>
