<svg width="1000" height="1000" viewBox="0 0 1000 1000" fill="none" xmlns="http://www.w3.org/2000/svg">
<path d="M656.25 562H562.5C544.922 562 531.25 548.328 531.25 530.75C531.25 514.148 544.922 499.5 562.5 499.5H656.25C656.25 499.5 750 395.008 750 343.25C750 291.492 708.008 249.5 656.25 249.5C604.492 249.5 562.5 291.492 562.5 343.25C562.5 368.641 583.984 405.75 606.445 437H562.5C510.742 437 468.75 479.969 468.75 530.75C468.75 582.508 510.742 624.5 562.5 624.5H656.25C672.852 624.5 687.5 639.148 687.5 655.75C687.5 673.328 672.852 687 656.25 687H430.664C415.039 711.414 397.461 733.875 384.766 749.5H656.25C707.031 749.5 750 707.508 750 655.75C750 604.969 707.031 562 656.25 562ZM656.25 312C672.852 312 687.5 326.648 687.5 343.25C687.5 360.828 672.852 374.5 656.25 374.5C638.672 374.5 625 360.828 625 343.25C625 326.648 638.672 312 656.25 312ZM343.75 499.5C291.992 499.5 250 541.492 250 593.25C250 645.008 343.75 749.5 343.75 749.5C343.75 749.5 437.5 645.008 437.5 593.25C437.5 541.492 395.508 499.5 343.75 499.5ZM343.75 624.5C326.172 624.5 312.5 610.828 312.5 593.25C312.5 576.648 326.172 562 343.75 562C360.352 562 375 576.648 375 593.25C375 610.828 360.352 624.5 343.75 624.5Z" fill="#BFBEC2"/>
</svg>
