<svg width="1000" height="1000" viewBox="0 0 1000 1000" fill="none" xmlns="http://www.w3.org/2000/svg">
<g clip-path="url(#clip0)">
<path d="M648.182 319H352.818C334.718 319 320 333.718 320 351.818V401.046C320 419.145 334.718 433.864 352.818 433.864H648.182C666.282 433.864 681.001 419.146 681.001 401.046V351.818C681 333.718 666.282 319 648.182 319ZM385.636 392.841C385.636 397.376 381.966 401.046 377.431 401.046C372.896 401.046 369.227 397.376 369.227 392.841V360.022C369.227 355.487 372.897 351.818 377.432 351.818C381.967 351.818 385.637 355.487 385.637 360.022V392.841H385.636ZM418.455 392.841C418.455 397.376 414.785 401.046 410.25 401.046C405.715 401.046 402.045 397.376 402.045 392.841V360.022C402.045 355.487 405.715 351.818 410.25 351.818C414.785 351.818 418.455 355.487 418.455 360.022V392.841ZM451.273 392.841C451.273 397.376 447.603 401.046 443.068 401.046C438.533 401.046 434.863 397.376 434.863 392.841V360.022C434.863 355.487 438.533 351.818 443.068 351.818C447.603 351.818 451.273 355.487 451.273 360.022V392.841ZM566.137 392.841C557.091 392.841 549.728 385.478 549.728 376.432C549.728 367.387 557.091 360.022 566.137 360.022C575.182 360.022 582.545 367.386 582.545 376.431C582.545 385.477 575.182 392.841 566.137 392.841ZM615.364 392.841C606.318 392.841 598.955 385.478 598.955 376.432C598.955 367.387 606.318 360.022 615.364 360.022C624.409 360.022 631.773 367.386 631.773 376.431C631.773 385.477 624.409 392.841 615.364 392.841Z" fill="#BFBEC2"/>
<path d="M648.182 442.068H352.818C334.718 442.068 320 456.787 320 474.887V524.114C320 542.214 334.718 556.933 352.818 556.933H648.182C666.282 556.933 681.001 542.214 681.001 524.114V474.887C681 456.787 666.282 442.068 648.182 442.068ZM385.636 515.909C385.636 520.444 381.966 524.114 377.431 524.114C372.896 524.114 369.227 520.444 369.227 515.909V483.091C369.227 478.556 372.897 474.886 377.432 474.886C381.967 474.886 385.637 478.556 385.637 483.091V515.909H385.636ZM418.455 515.909C418.455 520.444 414.785 524.114 410.25 524.114C405.715 524.114 402.045 520.444 402.045 515.909V483.091C402.045 478.556 405.715 474.886 410.25 474.886C414.785 474.886 418.455 478.556 418.455 483.091V515.909ZM451.273 515.909C451.273 520.444 447.603 524.114 443.068 524.114C438.533 524.114 434.863 520.444 434.863 515.909V483.091C434.863 478.556 438.533 474.886 443.068 474.886C447.603 474.886 451.273 478.556 451.273 483.091V515.909ZM566.137 515.909C557.091 515.909 549.728 508.546 549.728 499.5C549.728 490.455 557.091 483.092 566.137 483.092C575.182 483.092 582.545 490.455 582.545 499.5C582.545 508.546 575.182 515.909 566.137 515.909ZM615.364 515.909C606.318 515.909 598.955 508.546 598.955 499.5C598.955 490.455 606.318 483.092 615.364 483.092C624.409 483.092 631.773 490.455 631.773 499.5C631.773 508.546 624.409 515.909 615.364 515.909Z" fill="#BFBEC2"/>
<path d="M648.182 565.136H352.818C334.718 565.136 320 579.855 320 597.955V647.182C320 665.282 334.718 680.001 352.818 680.001H648.182C666.282 680.001 681.001 665.283 681.001 647.182V597.955C681 579.855 666.282 565.136 648.182 565.136ZM385.636 638.977C385.636 643.513 381.966 647.182 377.431 647.182C372.896 647.182 369.227 643.513 369.227 638.977V606.159C369.227 601.624 372.897 597.954 377.432 597.954C381.967 597.954 385.637 601.624 385.637 606.159V638.977H385.636ZM418.455 638.977C418.455 643.513 414.785 647.182 410.25 647.182C405.715 647.182 402.045 643.513 402.045 638.977V606.159C402.045 601.624 405.715 597.954 410.25 597.954C414.785 597.954 418.455 601.624 418.455 606.159V638.977ZM451.273 638.977C451.273 643.513 447.603 647.182 443.068 647.182C438.533 647.182 434.863 643.513 434.863 638.977V606.159C434.863 601.624 438.533 597.954 443.068 597.954C447.603 597.954 451.273 601.624 451.273 606.159V638.977ZM566.137 638.977C557.091 638.977 549.728 631.614 549.728 622.569C549.728 613.523 557.091 606.16 566.137 606.16C575.182 606.16 582.545 613.523 582.545 622.569C582.545 631.614 575.182 638.977 566.137 638.977ZM615.364 638.977C606.318 638.977 598.955 631.614 598.955 622.569C598.955 613.523 606.318 606.16 615.364 606.16C624.409 606.16 631.773 613.523 631.773 622.569C631.773 631.614 624.409 638.977 615.364 638.977Z" fill="#BFBEC2"/>
</g>
<defs>
<clipPath id="clip0">
<rect width="361" height="361" fill="white" transform="translate(320 319)"/>
</clipPath>
</defs>
</svg>
