<svg width="1000" height="1000" viewBox="0 0 1000 1000" fill="none" xmlns="http://www.w3.org/2000/svg">
<path d="M257.297 534.73L281.223 408.266H317.722L278.293 586H241.428L212.497 467.104L183.566 586H146.701L107.272 408.266H143.771L167.819 534.486L197.116 408.266H228.122L257.297 534.73ZM482.272 586H445.651V509.828H374.24V586H337.619V408.266H374.24V480.287H445.651V408.266H482.272V586ZM660.373 501.161C660.373 518.658 657.281 533.998 651.096 547.182C644.911 560.365 636.04 570.538 624.484 577.699C613.01 584.861 599.826 588.441 584.934 588.441C570.204 588.441 557.061 584.901 545.505 577.821C533.949 570.741 524.997 560.65 518.649 547.548C512.302 534.364 509.087 519.228 509.006 502.138V493.349C509.006 475.852 512.139 460.471 518.405 447.206C524.753 433.86 533.664 423.646 545.139 416.566C556.695 409.405 569.878 405.824 584.689 405.824C599.501 405.824 612.644 409.405 624.118 416.566C635.674 423.646 644.585 433.86 650.852 447.206C657.199 460.471 660.373 475.811 660.373 493.227V501.161ZM623.264 493.104C623.264 474.468 619.927 460.308 613.254 450.624C606.581 440.94 597.059 436.098 584.689 436.098C572.401 436.098 562.92 440.899 556.247 450.502C549.574 460.023 546.197 474.021 546.115 492.494V501.161C546.115 519.309 549.452 533.388 556.125 543.397C562.798 553.407 572.401 558.412 584.934 558.412C597.222 558.412 606.662 553.611 613.254 544.008C619.846 534.324 623.182 520.245 623.264 501.771V493.104ZM725.925 586H689.304V408.266H725.925V586ZM852.146 539.369C852.146 532.452 849.704 527.162 844.821 523.5C839.938 519.757 831.149 515.85 818.454 511.781C805.759 507.631 795.708 503.562 788.303 499.574C768.12 488.669 758.029 473.98 758.029 455.507C758.029 445.904 760.715 437.359 766.086 429.872C771.538 422.304 779.31 416.404 789.401 412.172C799.574 407.94 810.967 405.824 823.581 405.824C836.276 405.824 847.588 408.144 857.517 412.782C867.445 417.34 875.135 423.809 880.588 432.191C886.122 440.574 888.889 450.095 888.889 460.756H852.268C852.268 452.618 849.704 446.311 844.577 441.835C839.45 437.278 832.248 434.999 822.971 434.999C814.019 434.999 807.061 436.911 802.097 440.736C797.132 444.48 794.65 449.444 794.65 455.629C794.65 461.407 797.539 466.249 803.317 470.155C809.177 474.062 817.762 477.724 829.074 481.142C849.908 487.408 865.085 495.18 874.606 504.457C884.128 513.734 888.889 525.29 888.889 539.125C888.889 554.506 883.07 566.591 871.433 575.38C859.795 584.088 844.13 588.441 824.436 588.441C810.764 588.441 798.312 585.959 787.082 580.995C775.852 575.95 767.266 569.073 761.325 560.365C755.466 551.658 752.536 541.566 752.536 530.092H789.279C789.279 549.704 800.998 559.511 824.436 559.511C833.143 559.511 839.938 557.761 844.821 554.262C849.704 550.681 852.146 545.717 852.146 539.369Z" fill="#BFBEC2"/>
</svg>
